<svg width="198" height="74" viewBox="0 0 198 74" fill="none" xmlns="http://www.w3.org/2000/svg">
<rect y="27.9886" width="193" height="46" rx="12" transform="rotate(-8.29326 0 27.9886)" fill="white"/>
<path d="M33.4073 49.0502L32.0687 39.8673L34.602 39.498L35.9174 48.5226C36.2203 50.6007 37.5157 51.5841 39.574 51.2841C41.6322 50.9841 42.6099 49.6491 42.3099 47.5908L40.9944 38.5662L43.5276 38.197L44.8662 47.3799C45.3595 50.7641 43.4545 53.2247 39.9317 53.7382C36.4287 54.2488 33.9035 52.4542 33.4073 49.0502ZM47.0761 49.4225L49.3718 49.0879C49.5157 49.936 50.2269 50.378 51.3352 50.2165C52.4632 50.0521 53.0104 49.5074 52.9065 48.795C52.8344 48.3002 52.5252 47.9815 51.6256 47.9105L49.8036 47.7516C47.9845 47.6126 47.0124 46.9054 46.7845 45.3419C46.5046 43.4222 47.9602 42.0378 50.2163 41.7089C52.4131 41.3887 54.0821 42.4389 54.3788 44.336L52.083 44.6706C51.9421 43.8423 51.3101 43.3887 50.3799 43.5243C49.4299 43.6628 48.9392 44.1789 49.046 44.9112C49.1268 45.4653 49.6141 45.7581 50.4741 45.8349L52.2961 45.9937C53.9936 46.1303 54.9344 46.7612 55.1537 48.2653C55.4421 50.2444 53.9388 51.7166 51.5243 52.0686C49.09 52.4234 47.3559 51.3422 47.0761 49.4225ZM61.8332 50.5659C58.9239 50.99 56.5768 49.1695 56.1354 46.1415C55.6882 43.0739 57.3784 40.6649 60.2481 40.2466C63.1772 39.8197 65.3231 41.5078 65.7674 44.5556L65.8741 45.2879L58.5148 46.3808C58.9439 48.0766 59.9812 48.8147 61.5843 48.5811C62.9102 48.3878 63.706 47.7463 63.8475 46.7757L66.0839 46.4497C65.9798 48.6477 64.3862 50.1938 61.8332 50.5659ZM60.5564 42.2228C59.1315 42.4305 58.3732 43.3293 58.3491 44.8284L63.2573 44.113C63.0611 42.7672 62.0011 42.0122 60.5564 42.2228ZM66.0434 39.7051L67.4486 39.5002L67.2755 38.3128C66.8889 35.6608 68.1325 34.3477 70.2501 34.039C70.6262 33.9842 71.0842 33.9377 71.5114 33.9562L71.8114 36.0145L70.9604 36.1385C69.7334 36.3174 69.5288 36.994 69.6702 37.9637L69.8433 39.1512L72.1786 38.8108L72.4728 40.8294L70.1375 41.1698L71.2684 48.9279L68.8737 49.2769L67.7428 41.5189L66.3377 41.7237L66.0434 39.7051ZM80.3496 37.6197L82.7641 37.2678L84.1892 47.0445L81.9528 47.3704L81.5843 46.0902C81.1261 47.1069 79.9518 47.9249 78.6456 48.1153C76.3895 48.4441 74.8414 47.1135 74.4923 44.7188L73.6009 38.6034L76.0154 38.2515L76.7827 43.5159C77.0539 45.3762 77.8958 46.0215 79.2416 45.8254C80.7655 45.6032 81.3679 44.6059 81.0967 42.7456L80.3496 37.6197ZM89.1172 46.3261L86.7225 46.6752L84.5763 31.9508L86.9709 31.6017L89.1172 46.3261ZM97.7649 30.2911L99.8737 44.7582L97.3405 45.1275L95.2317 30.6604L97.7649 30.2911ZM105.139 43.9908L102.724 44.3427L101.299 34.566L103.536 34.24L103.918 35.4778C104.387 34.3988 105.491 33.6518 106.817 33.4585C109.271 33.1008 110.76 34.4401 111.129 36.9733L112.006 42.9897L109.592 43.3417L108.798 37.8992C108.559 36.2565 107.632 35.5832 106.385 35.7649C104.901 35.9813 104.141 37.1431 104.372 38.7264L105.139 43.9908ZM113.078 39.8018L115.374 39.4672C115.517 40.3153 116.229 40.7574 117.337 40.5958C118.465 40.4314 119.012 39.8868 118.908 39.1743C118.836 38.6795 118.527 38.3608 117.627 38.2898L115.805 38.1309C113.986 37.9919 113.014 37.2847 112.786 35.7212C112.506 33.8015 113.962 32.4171 116.218 32.0882C118.415 31.768 120.084 32.8183 120.381 34.7153L118.085 35.0499C117.944 34.2216 117.312 33.768 116.382 33.9036C115.432 34.0421 114.941 34.5583 115.048 35.2905C115.128 35.8447 115.616 36.1374 116.476 36.2142L118.298 36.373C119.995 36.5096 120.936 37.1405 121.155 38.6446C121.444 40.6237 119.94 42.096 117.526 42.4479C115.092 42.8027 113.358 41.7215 113.078 39.8018ZM122.92 29.4135C122.089 29.5347 121.341 28.9768 121.222 28.1654C121.104 27.354 121.665 26.6254 122.496 26.5043C123.288 26.3889 124.033 26.927 124.151 27.7384C124.27 28.5499 123.712 29.2981 122.92 29.4135ZM123.424 41.3255L121.999 31.5488L124.413 31.1969L125.838 40.9735L123.424 41.3255ZM127.034 35.5847C126.619 32.7348 128.168 30.3262 130.958 29.9194C132.423 29.706 133.66 30.1522 134.387 31.1174L134.329 29.7514L136.566 29.4255L137.918 38.7074C138.394 41.9729 136.732 44.2969 133.566 44.7585C130.755 45.1681 128.602 43.8449 127.924 41.2758L130.339 40.9238C130.682 42.1674 131.761 42.7781 133.246 42.5617C134.908 42.3194 135.824 41.1147 135.587 39.4918L135.351 37.869C134.87 38.8688 133.746 39.6187 132.341 39.8235C129.57 40.2274 127.447 38.4148 127.034 35.5847ZM129.46 35.1705C129.699 36.8131 130.927 37.8872 132.51 37.6565C134.173 37.4141 135.032 36.0965 134.784 34.3944C134.541 32.732 133.365 31.7313 131.682 31.9765C130.079 32.2101 129.226 33.5674 129.46 35.1705ZM142.904 38.486L140.489 38.8379L138.343 24.1135L140.777 23.7587L141.683 29.973C142.158 28.9336 143.217 28.1528 144.622 27.948C147.036 27.596 148.525 28.9353 148.894 31.4685L149.771 37.4849L147.357 37.8369L146.563 32.3944C146.324 30.7518 145.397 30.0784 144.17 30.2573C142.646 30.4794 141.911 31.6779 142.125 33.1424L142.904 38.486ZM155.468 36.6545L153.054 37.0065L151.923 29.2484L150.043 29.5225L149.749 27.5038L151.629 27.2298L151.185 24.182L153.599 23.83L154.043 26.8778L155.943 26.6009L156.237 28.6196L154.338 28.8965L155.468 36.6545ZM157.685 33.2998L159.98 32.9651C160.124 33.8133 160.835 34.2553 161.944 34.0937C163.072 33.9293 163.619 33.3847 163.515 32.6722C163.443 32.1775 163.134 31.8587 162.234 31.7877L160.412 31.6289C158.593 31.4898 157.621 30.7826 157.393 29.2192C157.113 27.2995 158.569 25.915 160.825 25.5862C163.022 25.2659 164.691 26.3162 164.987 28.2132L162.692 28.5479C162.551 27.7195 161.919 27.266 160.988 27.4016C160.038 27.54 159.548 28.0562 159.654 28.7885C159.735 29.3426 160.223 29.6354 161.083 29.7121L162.905 29.871C164.602 30.0076 165.543 30.6385 165.762 32.1426C166.051 34.1216 164.547 35.5939 162.133 35.9458C159.698 36.3007 157.964 35.2195 157.685 33.2998Z" fill="#BDB60B"/>
</svg>
