<svg width="458" height="173" viewBox="0 0 458 173" fill="none" xmlns="http://www.w3.org/2000/svg">
<g filter="url(#filter0_d_42_423)">
<rect x="1.77588" y="53.1135" width="444" height="114" rx="20" transform="rotate(-6.86971 1.77588 53.1135)" fill="white" shape-rendering="crispEdges"/>
<path opacity="0.4" d="M41.7816 80.8575C41.5933 81.6356 41.0757 82.2721 40.3424 82.6223C39.3132 83.1089 38.2434 83.5098 37.1542 83.8324C37.0474 83.8654 36.9406 83.8984 36.8326 83.9215C36.6574 83.9728 36.4811 84.0142 36.3048 84.0556C36.09 84.1117 35.864 84.159 35.6381 84.2064C35.0186 84.3314 34.4066 84.4353 33.7811 84.5107C33.1457 84.5872 32.5067 84.634 31.8741 84.6498C31.6036 84.6622 31.3419 84.6635 31.079 84.6549C30.9277 84.653 30.7764 84.6511 30.635 84.648C30.5234 84.6413 30.413 84.6445 30.3014 84.6378C29.1778 84.5919 28.0534 84.4554 26.948 84.226C26.1215 84.0536 25.4477 83.5606 25.0923 82.8682C24.7381 82.1856 24.7369 81.3397 25.0777 80.5735L25.9747 78.5718C26.164 78.136 26.2879 77.3254 26.2305 76.8488L26.008 75.0022C25.5738 71.3982 28.1498 68.1166 31.7537 67.6824C35.3477 67.2494 38.6294 69.8253 39.0636 73.4293L39.2861 75.2759C39.3435 75.7525 39.6564 76.5105 39.9536 76.8877L41.3004 78.619C41.7912 79.2649 41.9687 80.0695 41.7816 80.8575Z" fill="#17053E"/>
<path d="M32.7757 76.3322C32.3587 76.3825 31.9805 76.0856 31.9302 75.6686L31.5594 72.5908C31.5092 72.1739 31.8061 71.7956 32.2231 71.7454C32.64 71.6952 33.0183 71.9921 33.0685 72.409L33.4393 75.4868C33.4796 75.905 33.1827 76.2832 32.7757 76.3322Z" fill="#17053E"/>
<path d="M36.6918 85.1774C36.4135 86.3793 35.4108 87.3361 34.1201 87.4916C33.3358 87.5861 32.5231 87.3617 31.9089 86.8616C31.5553 86.602 31.2692 86.2336 31.0811 85.8433C31.2126 85.8476 31.3429 85.8419 31.4842 85.8451C31.7162 85.8473 31.958 85.8484 32.1987 85.8396C32.7706 85.821 33.35 85.7814 33.9259 85.7121C34.4918 85.6439 35.0541 85.5459 35.6041 85.4293C35.8102 85.3843 36.0175 85.3493 36.2125 85.2956C36.3689 85.2566 36.5254 85.2176 36.6918 85.1774Z" fill="#17053E"/>
<path d="M64.3576 75.7908L60.0436 67.5718L61.2945 67.4211L64.0545 72.6727C64.304 73.1382 64.5296 73.6066 64.7858 74.2284C64.9066 73.5249 65.0402 72.9286 65.1372 72.5302L66.5605 66.7867L67.7757 66.6403L65.5729 75.6444L64.3576 75.7908ZM68.0667 72.3827C67.85 70.5837 68.9846 69.1658 70.7359 68.9548C72.4753 68.7453 73.9142 69.8531 74.1309 71.6521C74.3476 73.4511 73.2131 74.869 71.4737 75.0786C69.7223 75.2896 68.2835 74.1817 68.0667 72.3827ZM69.1986 72.2464C69.345 73.4616 70.2213 74.2142 71.3531 74.0778C72.473 73.9429 73.1574 73.0023 73.011 71.787C72.8646 70.5718 71.9764 69.8207 70.8565 69.9556C69.7246 70.092 69.0522 71.0311 69.1986 72.2464ZM76.0969 74.3765L74.8102 74.5315L76.5001 71.4029L74.1202 68.7042L75.4188 68.5478L77.1574 70.5381L78.3377 68.1961L79.6125 68.0425L77.9417 71.2293L80.2786 73.8727L78.98 74.0292L77.2696 72.0717L76.0969 74.3765ZM84.4168 70.2558L82.2365 70.5184L82.6069 73.5922L81.4393 73.7329L80.4016 65.1192L83.7493 64.7158C85.4411 64.512 86.6588 65.4894 86.8583 67.1454C87.052 68.7538 86.0966 70.0534 84.4168 70.2558ZM83.6731 65.7887L81.6954 66.0269L82.1102 69.47L84.0403 69.2375C85.1959 69.0983 85.7575 68.3417 85.6297 67.2813C85.4991 66.1972 84.7692 65.6566 83.6731 65.7887ZM90.053 72.6951L88.8855 72.8358L87.8477 64.2221L91.1002 63.8302C92.9468 63.6078 94.1606 64.4526 94.3544 66.061C94.4979 67.2524 94.0056 68.182 92.9749 68.6566L95.1641 72.0794L93.8655 72.2358L91.8466 69.0222L89.6425 69.2878L90.053 72.6951ZM89.1416 65.1298L89.5176 68.2513L91.6145 67.9986C92.6986 67.868 93.2478 67.2096 93.1287 66.2208C93.0081 65.22 92.2987 64.7495 91.2265 64.8787L89.1416 65.1298Z" fill="#17053E"/>
<circle cx="105.041" cy="65.8532" r="2" transform="rotate(-6.86971 105.041 65.8532)" fill="#8F899C"/>
<path d="M115.517 67.1979L115.465 66.769L116.597 66.6326L116.649 67.0615C116.751 67.9074 117.289 68.4591 118.242 68.3442C119.219 68.2265 119.576 67.5792 119.468 66.6856L118.723 60.5023L119.891 60.3617L120.641 66.5926C120.828 68.1414 119.909 69.2432 118.372 69.4284C116.728 69.6265 115.697 68.6871 115.517 67.1979ZM126.008 62.4529L127.116 62.3195L127.818 68.1453L126.818 68.2659L126.592 67.3986C126.332 68.0464 125.608 68.5567 124.75 68.6601C123.392 68.8237 122.519 67.9982 122.346 66.5685L121.91 62.9467L123.03 62.8118L123.422 66.0643C123.573 67.3152 124.166 67.7272 125.024 67.6238C126.048 67.5004 126.529 66.7777 126.379 65.5267L126.008 62.4529ZM128.646 66.3292L129.719 66.2001C129.79 66.7958 130.286 67.0986 131.025 67.0096C131.811 66.9149 132.225 66.5387 132.161 66.0026C132.113 65.6094 131.894 65.3941 131.268 65.3124L130.214 65.1976C129.148 65.0723 128.597 64.6188 128.494 63.761C128.365 62.6888 129.189 61.9006 130.475 61.7456C131.75 61.592 132.67 62.2064 132.827 63.3115L131.755 63.4407C131.661 62.8597 131.223 62.5378 130.544 62.6196C129.841 62.7043 129.486 63.0614 129.55 63.5975C129.598 63.9907 129.915 64.2183 130.504 64.2924L131.559 64.4192C132.576 64.5383 133.119 64.9322 133.224 65.8019C133.358 66.9099 132.489 67.7276 131.107 67.8941C129.737 68.0592 128.78 67.4372 128.646 66.3292ZM136.311 67.1221L135.191 67.2571L134.603 62.3724L133.459 62.5102L133.346 61.569L134.489 61.4312L134.27 59.6084L135.39 59.4734L135.609 61.2963L136.753 61.1585L136.866 62.0997L135.723 62.2375L136.311 67.1221ZM143.076 66.3072L141.908 66.4478L140.871 57.8341L142.038 57.6934L147.249 63.8222L146.446 57.1624L147.614 57.0217L148.652 65.6354L147.484 65.7761L142.273 59.6473L143.076 66.3072ZM149.734 62.5437C149.517 60.7447 150.652 59.3269 152.403 59.1159C154.143 58.9063 155.581 60.0142 155.798 61.8131C156.015 63.6121 154.88 65.03 153.141 65.2396C151.39 65.4506 149.951 64.3427 149.734 62.5437ZM150.866 62.4074C151.012 63.6226 151.889 64.3752 153.02 64.2388C154.14 64.1039 154.825 63.1633 154.678 61.9481C154.532 60.7329 153.644 59.9817 152.524 60.1166C151.392 60.253 150.719 61.1922 150.866 62.4074ZM158.373 64.4642L155.765 58.868L156.92 58.7288L158.25 61.6386C158.433 62.0517 158.605 62.4782 158.774 62.9776C158.808 62.4538 158.904 61.9467 158.989 61.5496L159.601 58.4058L160.745 58.268L162.074 61.1779C162.204 61.4523 162.477 62.1085 162.622 62.514C162.661 62.0378 162.72 61.6198 162.825 61.0875L163.437 57.9436L164.605 57.803L163.317 63.8685L162.257 63.9963L160.868 60.9969C160.607 60.4361 160.433 59.9977 160.335 59.6832C160.31 59.9763 160.249 60.3705 160.119 61.0992L159.481 64.3307L158.373 64.4642Z" fill="#8F899C"/>
<path d="M66.4797 103.738L65.3121 103.878L64.2743 95.2646L65.4419 95.1239L65.8883 98.8291L70.1534 98.3153L69.7071 94.6101L70.8746 94.4694L71.9124 103.083L70.7448 103.224L70.2841 99.3994L66.0189 99.9133L66.4797 103.738ZM76.2505 102.706C74.5349 102.912 73.2062 101.815 72.988 100.004C72.7684 98.1815 73.7719 96.7794 75.4636 96.5756C77.1197 96.3761 78.3416 97.3892 78.5497 99.1167L78.6 99.5337L74.098 100.088C74.3292 101.305 75.0544 101.907 76.1624 101.773C77.0321 101.669 77.5609 101.242 77.6711 100.552L78.7196 100.426C78.5843 101.711 77.6921 102.532 76.2505 102.706ZM75.577 97.5168C74.6001 97.6345 74.0509 98.2929 74.0314 99.3347L77.3911 98.93C77.2748 97.9649 76.5659 97.3977 75.577 97.5168ZM81.8394 102.032C80.5884 102.183 79.7651 101.569 79.6374 100.509C79.5082 99.4364 80.226 98.673 81.5832 98.4007L83.4007 98.0367L83.3806 97.8699C83.2629 96.893 82.6375 96.6178 81.8512 96.7126C80.91 96.826 80.4241 97.3075 80.5088 98.0105L79.5319 98.1281C79.3855 96.9129 80.2901 95.9941 81.7912 95.8133C83.2328 95.6396 84.3016 96.2844 84.491 97.857L84.9317 101.515L83.9786 101.629L83.7461 100.703C83.5286 101.406 82.7806 101.919 81.8394 102.032ZM82.0563 101.124C83.1166 100.996 83.6767 100.227 83.5447 99.1314L83.5074 98.8216L82.0325 99.1202C81.0551 99.3346 80.696 99.7647 80.7649 100.337C80.8395 100.956 81.3295 101.211 82.0563 101.124ZM88.835 101.189C87.1432 101.393 85.9665 100.254 85.7526 98.4786C85.5373 96.6915 86.4159 95.2561 88.1434 95.048C89.037 94.9403 89.8349 95.2431 90.3142 95.9105L89.8463 92.0266L90.9542 91.8931L92.0107 100.662L91.0099 100.782L90.7868 99.7334C90.5018 100.578 89.7643 101.077 88.835 101.189ZM88.9393 100.149C90.0831 100.012 90.6841 99.0811 90.5377 97.8658C90.3941 96.6745 89.5879 95.9013 88.4441 96.0391C87.3004 96.1769 86.7366 97.1151 86.8801 98.3065C87.0251 99.5098 87.7956 100.287 88.9393 100.149ZM92.9459 98.8327L94.0182 98.7035C94.0899 99.2992 94.5857 99.6021 95.3244 99.5131C96.1107 99.4184 96.5247 99.0422 96.4601 98.506C96.4127 98.1129 96.1934 97.8976 95.5671 97.8159L94.5138 97.7011C93.4472 97.5757 92.897 97.1223 92.7936 96.2645C92.6645 95.1923 93.4881 94.4041 94.7748 94.2491C96.0496 94.0955 96.9697 94.7098 97.127 95.815L96.0547 95.9441C95.9606 95.3632 95.5229 95.0413 94.8438 95.1231C94.1409 95.2078 93.7851 95.5649 93.8497 96.101C93.897 96.4942 94.2145 96.7218 94.8036 96.7959L95.8584 96.9227C96.8759 97.0418 97.4189 97.4357 97.5237 98.3054C97.6572 99.4134 96.7888 100.231 95.4068 100.398C94.0367 100.563 93.0794 99.9407 92.9459 98.8327ZM105.549 93.1202L106.657 92.9867L107.359 98.8126L106.358 98.9332L106.133 98.0659C105.873 98.7137 105.148 99.224 104.291 99.3273C102.932 99.4909 102.059 98.6654 101.887 97.2358L101.451 93.614L102.571 93.479L102.963 96.7315C103.113 97.9825 103.707 98.3944 104.565 98.2911C105.589 98.1677 106.07 97.4449 105.92 96.194L105.549 93.1202ZM109.298 101.226L108.282 92.791L109.295 92.669L109.504 93.7073C109.801 92.8617 110.538 92.35 111.467 92.2381C113.135 92.0371 114.322 93.1632 114.537 94.9503C114.751 96.7254 113.935 98.1775 112.207 98.3856C111.278 98.4976 110.456 98.1977 109.989 97.5288L110.418 101.091L109.298 101.226ZM109.766 95.5735C109.909 96.7649 110.703 97.5394 111.847 97.4016C112.991 97.2638 113.567 96.3242 113.423 95.1328C113.278 93.9295 112.496 93.1536 111.352 93.2914C110.208 93.4292 109.619 94.3583 109.766 95.5735ZM117.186 95.0058L116.317 95.1106C116.09 94.2314 115.815 92.6569 115.629 91.1081L115.388 89.1066L116.674 88.9516L116.916 90.9531C117.105 92.5257 117.199 94.1098 117.186 95.0058ZM117.089 97.8096C116.612 97.867 116.185 97.5317 116.129 97.0671C116.073 96.6024 116.409 96.1752 116.885 96.1178C117.338 96.0633 117.777 96.3972 117.833 96.8618C117.889 97.3264 117.542 97.755 117.089 97.8096ZM126.055 93.4417L123.875 93.7044L124.246 96.7782L123.078 96.9188L122.04 88.3051L125.388 87.9018C127.08 87.698 128.297 88.6753 128.497 90.3314C128.691 91.9397 127.735 93.2393 126.055 93.4417ZM125.312 88.9746L123.334 89.2129L123.749 92.656L125.679 92.4235C126.835 92.2842 127.396 91.5276 127.268 90.4673C127.138 89.3831 126.408 88.8426 125.312 88.9746ZM129.333 93.204C129.116 91.405 130.251 89.9871 132.002 89.7761C133.742 89.5666 135.18 90.6744 135.397 92.4734C135.614 94.2724 134.479 95.6903 132.74 95.8998C130.989 96.1108 129.55 95.003 129.333 93.204ZM130.465 93.0676C130.611 94.2828 131.488 95.0354 132.619 94.8991C133.739 94.7641 134.424 93.8235 134.277 92.6083C134.131 91.3931 133.243 90.642 132.123 90.7769C130.991 90.9132 130.318 91.8524 130.465 93.0676ZM136.308 93.6086L137.38 93.4794C137.452 94.0751 137.948 94.378 138.687 94.289C139.473 94.1942 139.887 93.818 139.822 93.2819C139.775 92.8887 139.556 92.6734 138.929 92.5918L137.876 92.4769C136.809 92.3516 136.259 91.8982 136.156 91.0404C136.027 89.9681 136.85 89.1799 138.137 89.0249C139.412 88.8713 140.332 89.4857 140.489 90.5908L139.417 90.72C139.323 90.1391 138.885 89.8171 138.206 89.8989C137.503 89.9836 137.147 90.3407 137.212 90.8769C137.259 91.27 137.577 91.4977 138.166 91.5718L139.221 91.6985C140.238 91.8176 140.781 92.2115 140.886 93.0812C141.019 94.1892 140.151 95.007 138.769 95.1735C137.399 95.3385 136.442 94.7166 136.308 93.6086ZM142.008 87.3256C141.603 87.3745 141.23 87.0811 141.181 86.676C141.131 86.259 141.425 85.8971 141.83 85.8483C142.236 85.7995 142.608 86.081 142.658 86.498C142.707 86.9031 142.414 87.2768 142.008 87.3256ZM142.329 94.5996L141.627 88.7737L142.747 88.6388L143.449 94.4646L142.329 94.5996ZM146.719 94.0707L145.599 94.2056L145.01 89.3209L143.867 89.4587L143.753 88.5175L144.897 88.3797L144.677 86.5569L145.797 86.422L146.017 88.2448L147.161 88.107L147.274 89.0482L146.13 89.186L146.719 94.0707ZM148.547 86.5379C148.142 86.5867 147.768 86.2933 147.719 85.8882C147.669 85.4712 147.964 85.1094 148.369 85.0606C148.774 85.0118 149.147 85.2933 149.197 85.7102C149.246 86.1153 148.952 86.4891 148.547 86.5379ZM148.867 93.8118L148.166 87.9859L149.285 87.851L149.987 93.6769L148.867 93.8118ZM153.245 93.2844L150.197 87.7412L151.388 87.5977L153.055 90.6966C153.323 91.2202 153.549 91.6886 153.687 92.0345C153.736 91.6418 153.867 91.1185 154.008 90.5818L154.914 87.1728L156.082 87.0322L154.353 93.1509L153.245 93.2844ZM159.938 92.6231C158.223 92.8297 156.894 91.7328 156.676 89.9219C156.456 88.0991 157.46 86.697 159.151 86.4932C160.807 86.2937 162.029 87.3068 162.238 89.0343L162.288 89.4513L157.786 90.0057C158.017 91.2228 158.742 91.8244 159.85 91.6909C160.72 91.5861 161.249 91.1598 161.359 90.4697L162.407 90.3434C162.272 91.6288 161.38 92.4494 159.938 92.6231ZM159.265 87.4344C158.288 87.5521 157.739 88.2105 157.719 89.2523L161.079 88.8475C160.963 87.8825 160.254 87.3152 159.265 87.4344ZM166.391 88.7515C166.171 86.9287 167.175 85.5266 168.878 85.3213C170.344 85.1448 171.469 85.8553 171.828 87.1295L170.708 87.2644C170.428 86.5487 169.785 86.2273 169.035 86.3178C167.974 86.4455 167.345 87.3432 167.497 88.6061C167.648 89.857 168.425 90.5854 169.485 90.4576C170.283 90.3614 170.829 89.8727 170.948 89.1573L172.068 89.0224C171.994 90.3125 171.011 91.289 169.606 91.4584C167.89 91.6651 166.612 90.5862 166.391 88.7515ZM172.753 87.9728C172.537 86.1738 173.671 84.756 175.423 84.545C177.162 84.3354 178.601 85.4432 178.818 87.2422C179.034 89.0412 177.9 90.4591 176.16 90.6687C174.409 90.8797 172.97 89.7718 172.753 87.9728ZM173.885 87.8365C174.032 89.0517 174.908 89.8043 176.04 89.6679C177.16 89.533 177.844 88.5924 177.698 87.3772C177.551 86.162 176.663 85.4108 175.543 85.5457C174.411 85.6821 173.739 86.6213 173.885 87.8365ZM181.774 89.8474L178.725 84.3043L179.916 84.1607L181.583 87.2596C181.851 87.7833 182.077 88.2516 182.215 88.5976C182.265 88.2048 182.395 87.6815 182.536 87.1448L183.442 83.7359L184.61 83.5952L182.881 89.7139L181.774 89.8474ZM188.466 89.1861C186.751 89.3928 185.422 88.2958 185.204 86.4849C184.984 84.6621 185.988 83.26 187.68 83.0562C189.336 82.8567 190.558 83.8698 190.766 85.5973L190.816 86.0143L186.314 86.5688C186.545 87.7858 187.27 88.3874 188.378 88.2539C189.248 88.1491 189.777 87.7228 189.887 87.0327L190.935 86.9064C190.8 88.1918 189.908 89.0124 188.466 89.1861ZM187.793 83.9974C186.816 84.1151 186.267 84.7735 186.247 85.8153L189.607 85.4105C189.491 84.4455 188.782 83.8782 187.793 83.9974ZM195.021 82.2926L195.144 83.3172L194.644 83.3775C193.584 83.5052 193.006 84.2275 193.141 85.3474L193.512 88.4331L192.393 88.568L191.692 82.7541L192.741 82.6278L192.918 83.5008C193.083 82.8645 193.618 82.3891 194.417 82.2929C194.619 82.2685 194.789 82.2722 195.021 82.2926ZM198.267 88.0053C197.016 88.156 196.193 87.5421 196.065 86.4818C195.936 85.4095 196.654 84.6462 198.011 84.3739L199.828 84.0099L199.808 83.8431C199.691 82.8662 199.065 82.591 198.279 82.6857C197.338 82.7991 196.852 83.2807 196.936 83.9836L195.959 84.1013C195.813 82.8861 196.718 81.9673 198.219 81.7864C199.66 81.6128 200.729 82.2576 200.919 83.8302L201.359 87.4877L200.406 87.6026L200.174 86.6757C199.956 87.3788 199.208 87.8919 198.267 88.0053ZM198.484 87.0969C199.544 86.9691 200.104 86.2006 199.972 85.1045L199.935 84.7948L198.46 85.0933C197.483 85.3078 197.124 85.7378 197.192 86.3097C197.267 86.9292 197.757 87.1844 198.484 87.0969ZM202.172 84.2835C201.974 82.6394 202.879 81.225 204.571 81.0212C205.512 80.9078 206.291 81.2491 206.748 81.9314L206.712 80.9325L207.713 80.8119L208.386 86.3995C208.607 88.2342 207.616 89.5381 205.829 89.7534C204.244 89.9443 203.052 89.1814 202.66 87.7299L203.78 87.595C204.026 88.4356 204.73 88.8585 205.707 88.7408C206.803 88.6087 207.431 87.8078 207.298 86.6998L207.157 85.5322C206.858 86.2572 206.144 86.7542 205.227 86.8647C203.571 87.0642 202.369 85.9157 202.172 84.2835ZM203.289 84.1248C203.421 85.2208 204.204 85.9968 205.3 85.8648C206.431 85.7284 207.025 84.835 206.887 83.6913C206.752 82.5714 205.987 81.8416 204.844 81.9794C203.724 82.1144 203.16 83.0525 203.289 84.1248ZM212.562 86.2832C210.846 86.4898 209.517 85.3929 209.299 83.582C209.08 81.7592 210.083 80.3571 211.775 80.1533C213.431 79.9537 214.653 80.9669 214.861 82.6944L214.911 83.1114L210.409 83.6658C210.64 84.8829 211.366 85.4845 212.474 85.351C213.343 85.2462 213.872 84.8199 213.982 84.1298L215.031 84.0035C214.896 85.2889 214.003 86.1095 212.562 86.2832ZM211.888 81.0945C210.911 81.2122 210.362 81.8706 210.343 82.9124L213.702 82.5076C213.586 81.5426 212.877 80.9753 211.888 81.0945ZM219.013 82.3997C218.796 80.6007 219.93 79.1828 221.682 78.9718C223.421 78.7622 224.86 79.8701 225.077 81.6691C225.294 83.4681 224.159 84.8859 222.42 85.0955C220.668 85.3065 219.229 84.1987 219.013 82.3997ZM220.144 82.2633C220.291 83.4785 221.167 84.2311 222.299 84.0947C223.419 83.9598 224.103 83.0192 223.957 81.804C223.81 80.5888 222.922 79.8376 221.802 79.9726C220.671 80.1089 219.998 81.0481 220.144 82.2633ZM225.312 78.6916L226.17 78.5882L226.058 77.659C225.885 76.2293 226.601 75.5508 227.662 75.423C227.876 75.3972 228.128 75.379 228.358 75.3874L228.475 76.3525L227.974 76.4127C227.248 76.5003 227.102 76.8926 227.178 77.524L227.29 78.4533L228.672 78.2868L228.785 79.228L227.403 79.3945L227.991 84.2792L226.872 84.4141L226.283 79.5294L225.425 79.6328L225.312 78.6916ZM233.427 86.2714L233.316 85.354L234.067 85.2636C234.603 85.199 235.022 85.0639 235.207 84.2923L235.342 83.7079L232.255 77.855L233.435 77.7129L235.692 82.2032L236.854 77.301L238.01 77.1618L236.118 84.6297C235.845 85.6779 235.311 86.1652 234.418 86.2728C234.049 86.3173 233.733 86.307 233.427 86.2714ZM238.652 80.0336C238.435 78.2346 239.57 76.8167 241.321 76.6057C243.06 76.3962 244.499 77.504 244.716 79.303C244.933 81.102 243.798 82.5199 242.059 82.7294C240.307 82.9404 238.869 81.8326 238.652 80.0336ZM239.784 79.8972C239.93 81.1124 240.806 81.865 241.938 81.7287C243.058 81.5937 243.743 80.6531 243.596 79.4379C243.45 78.2227 242.561 77.4716 241.442 77.6065C240.31 77.7428 239.637 78.682 239.784 79.8972ZM249.493 75.7783L250.601 75.6449L251.303 81.4707L250.302 81.5913L250.077 80.724C249.816 81.3718 249.092 81.8821 248.234 81.9854C246.876 82.1491 246.003 81.3236 245.831 79.8939L245.394 76.2721L246.514 76.1372L246.906 79.3897C247.057 80.6406 247.65 81.0526 248.508 80.9492C249.533 80.8258 250.014 80.1031 249.863 78.8521L249.493 75.7783ZM255.556 74.9995L255.679 76.0241L255.179 76.0844C254.118 76.2122 253.541 76.9345 253.676 78.0544L254.047 81.14L252.927 81.275L252.227 75.461L253.275 75.3347L253.453 76.2077C253.618 75.5714 254.153 75.096 254.951 74.9998C255.154 74.9754 255.324 74.9792 255.556 74.9995ZM259.891 78.7197L260.963 78.5905C261.035 79.1862 261.531 79.4891 262.27 79.4001C263.056 79.3054 263.47 78.9291 263.405 78.393C263.358 77.9999 263.139 77.7845 262.512 77.7029L261.459 77.588C260.392 77.4627 259.842 77.0093 259.739 76.1515C259.61 75.0792 260.433 74.2911 261.72 74.136C262.995 73.9825 263.915 74.5968 264.072 75.7019L263 75.8311C262.906 75.2502 262.468 74.9282 261.789 75.0101C261.086 75.0947 260.73 75.4519 260.795 75.988C260.842 76.3811 261.16 76.6088 261.749 76.6829L262.803 76.8096C263.821 76.9288 264.364 77.3226 264.469 78.1924C264.602 79.3003 263.734 80.1181 262.352 80.2846C260.982 80.4496 260.025 79.8277 259.891 78.7197ZM269.237 73.3996L270.345 73.2662L271.047 79.092L270.046 79.2126L269.82 78.3453C269.56 78.9931 268.836 79.5034 267.978 79.6068C266.62 79.7704 265.747 78.9449 265.575 77.5152L265.138 73.8934L266.258 73.7585L266.65 77.011C266.801 78.2619 267.394 78.6739 268.252 78.5705C269.277 78.4471 269.758 77.7244 269.607 76.4734L269.237 73.3996ZM271.875 77.2759L272.947 77.1468C273.019 77.7425 273.515 78.0453 274.253 77.9563C275.039 77.8616 275.453 77.4854 275.389 76.9493C275.341 76.5561 275.122 76.3408 274.496 76.2591L273.443 76.1443C272.376 76.019 271.826 75.5655 271.722 74.7077C271.593 73.6355 272.417 72.8473 273.704 72.6923C274.978 72.5387 275.898 73.1531 276.056 74.2582L274.984 74.3874C274.889 73.8064 274.452 73.4845 273.773 73.5663C273.07 73.651 272.714 74.0081 272.778 74.5442C272.826 74.9374 273.143 75.165 273.732 75.2391L274.787 75.3659C275.805 75.485 276.348 75.8789 276.452 76.7486C276.586 77.8566 275.718 78.6743 274.336 78.8408C272.965 79.0059 272.008 78.3839 271.875 77.2759ZM279.539 78.0688L278.42 78.2038L277.831 73.3191L276.687 73.4569L276.574 72.5157L277.718 72.3779L277.498 70.5551L278.618 70.4201L278.838 72.243L279.981 72.1052L280.095 73.0464L278.951 73.1842L279.539 78.0688ZM283.339 77.7561C282.088 77.9068 281.265 77.2929 281.137 76.2325C281.008 75.1603 281.726 74.3969 283.083 74.1247L284.901 73.7606L284.881 73.5939C284.763 72.6169 284.137 72.3417 283.351 72.4365C282.41 72.5499 281.924 73.0314 282.009 73.7344L281.032 73.8521C280.885 72.6368 281.79 71.7181 283.291 71.5372C284.733 71.3635 285.802 72.0083 285.991 73.5809L286.432 77.2385L285.479 77.3533L285.246 76.4265C285.029 77.1295 284.281 77.6427 283.339 77.7561ZM283.556 76.8476C284.617 76.7199 285.177 75.9514 285.045 74.8553L285.007 74.5455L283.532 74.8441C282.555 75.0585 282.196 75.4886 282.265 76.0604C282.339 76.68 282.829 76.9352 283.556 76.8476ZM287.662 69.7777C287.257 69.8265 286.883 69.5331 286.835 69.1281C286.784 68.7111 287.079 68.3492 287.484 68.3004C287.889 68.2516 288.262 68.5331 288.312 68.9501C288.361 69.3552 288.067 69.7289 287.662 69.7777ZM287.983 77.0516L287.281 71.2258L288.401 71.0908L289.102 76.9167L287.983 77.0516ZM291.848 76.5859L290.728 76.7208L290.026 70.895L291.039 70.773L291.266 71.6521C291.555 70.9405 292.246 70.4583 293.068 70.3593C294.605 70.1741 295.421 71.0306 295.601 72.5199L296.03 76.0821L294.91 76.217L294.511 72.905C294.369 71.7255 293.764 71.315 292.906 71.4183C291.857 71.5446 291.34 72.3684 291.477 73.5002L291.848 76.5859ZM299.302 75.8329C298.051 75.9837 297.228 75.3697 297.1 74.3094C296.971 73.2372 297.689 72.4738 299.046 72.2015L300.863 71.8375L300.843 71.6707C300.726 70.6938 300.1 70.4186 299.314 70.5133C298.373 70.6267 297.887 71.1083 297.971 71.8112L296.995 71.9289C296.848 70.7137 297.753 69.7949 299.254 69.6141C300.695 69.4404 301.764 70.0852 301.954 71.6578L302.394 75.3154L301.441 75.4302L301.209 74.5033C300.991 75.2064 300.243 75.7196 299.302 75.8329ZM299.519 74.9245C300.579 74.7967 301.139 74.0282 301.007 72.9321L300.97 72.6224L299.495 72.9209C298.518 73.1354 298.159 73.5654 298.228 74.1373C298.302 74.7568 298.792 75.012 299.519 74.9245ZM304.958 75.0065L303.945 75.1285L302.889 66.3599L304.009 66.225L304.484 70.1685C304.773 69.3601 305.511 68.8602 306.464 68.7454C308.132 68.5445 309.29 69.7344 309.507 71.5334C309.72 73.2967 308.823 74.6858 307.132 74.8897C306.214 75.0002 305.391 74.6884 304.914 73.9361L304.958 75.0065ZM304.724 72.0613C304.87 73.2765 305.663 74.0392 306.807 73.9014C307.951 73.7636 308.527 72.824 308.382 71.6207C308.238 70.4293 307.456 69.6533 306.312 69.7911C305.168 69.9289 304.58 70.87 304.724 72.0613ZM310.769 66.994C310.364 67.0428 309.99 66.7494 309.941 66.3443C309.891 65.9273 310.186 65.5654 310.591 65.5166C310.996 65.4678 311.368 65.7493 311.418 66.1663C311.467 66.5714 311.174 66.9451 310.769 66.994ZM311.089 74.2679L310.387 68.442L311.507 68.3071L312.209 74.1329L311.089 74.2679ZM314.978 73.7993L313.859 73.9342L312.802 65.1656L313.922 65.0307L314.978 73.7993ZM316.307 66.3267C315.902 66.3755 315.528 66.0821 315.479 65.6771C315.429 65.2601 315.724 64.8982 316.129 64.8494C316.534 64.8006 316.906 65.0821 316.956 65.4991C317.005 65.9042 316.712 66.2779 316.307 66.3267ZM316.627 73.6006L315.925 67.7748L317.045 67.6399L317.747 73.4657L316.627 73.6006ZM321.017 73.0718L319.897 73.2067L319.309 68.322L318.165 68.4598L318.051 67.5186L319.195 67.3808L318.976 65.558L320.095 65.4231L320.315 67.2459L321.459 67.1081L321.572 68.0493L320.428 68.1871L321.017 73.0718ZM322.92 75.4895L322.81 74.5721L323.56 74.4817C324.096 74.4171 324.515 74.282 324.7 73.5104L324.835 72.926L321.749 67.0731L322.928 66.931L325.186 71.4213L326.348 66.5191L327.503 66.3799L325.611 73.8478C325.338 74.896 324.805 75.3833 323.911 75.4909C323.542 75.5354 323.227 75.5251 322.92 75.4895ZM332.037 64.4316C331.632 64.4804 331.258 64.187 331.209 63.782C331.159 63.365 331.454 63.0031 331.859 62.9543C332.264 62.9055 332.636 63.187 332.686 63.604C332.735 64.0091 332.442 64.3828 332.037 64.4316ZM332.357 71.7055L331.655 65.8797L332.775 65.7447L333.477 71.5706L332.357 71.7055ZM336.223 71.2398L335.103 71.3747L334.401 65.5489L335.414 65.4269L335.64 66.306C335.929 65.5944 336.621 65.1122 337.443 65.0132C338.98 64.828 339.796 65.6845 339.975 67.1738L340.404 70.736L339.285 70.8709L338.886 67.5589C338.743 66.3794 338.138 65.9689 337.28 66.0722C336.232 66.1985 335.715 67.0223 335.851 68.1541L336.223 71.2398ZM341.635 63.2752C341.23 63.324 340.856 63.0306 340.808 62.6256C340.757 62.2086 341.052 61.8467 341.457 61.7979C341.862 61.7491 342.235 62.0306 342.285 62.4476C342.334 62.8527 342.04 63.2264 341.635 63.2752ZM341.956 70.5491L341.254 64.7233L342.374 64.5883L343.075 70.4142L341.956 70.5491ZM346.345 70.0203L345.226 70.1552L344.637 65.2705L343.493 65.4083L343.38 64.4671L344.524 64.3293L344.304 62.5065L345.424 62.3716L345.644 64.1944L346.787 64.0566L346.901 64.9978L345.757 65.1356L346.345 70.0203ZM348.174 62.4875C347.769 62.5363 347.395 62.2429 347.346 61.8378C347.296 61.4208 347.591 61.059 347.996 61.0102C348.401 60.9614 348.773 61.2428 348.824 61.6598C348.872 62.0649 348.579 62.4387 348.174 62.4875ZM348.494 69.7614L347.792 63.9355L348.912 63.8006L349.614 69.6265L348.494 69.7614ZM352.961 69.3683C351.71 69.519 350.887 68.9051 350.759 67.8447C350.63 66.7725 351.348 66.0092 352.705 65.7369L354.522 65.3729L354.502 65.2061C354.384 64.2291 353.759 63.954 352.973 64.0487C352.032 64.1621 351.546 64.6437 351.63 65.3466L350.653 65.4643C350.507 64.2491 351.412 63.3303 352.913 63.1494C354.354 62.9757 355.423 63.6205 355.613 65.1931L356.053 68.8507L355.1 68.9655L354.868 68.0387C354.65 68.7417 353.902 69.2549 352.961 69.3683ZM353.178 68.4598C354.238 68.3321 354.798 67.5636 354.666 66.4675L354.629 66.1577L353.154 66.4563C352.177 66.6707 351.817 67.1008 351.886 67.6726C351.961 68.2922 352.451 68.5474 353.178 68.4598ZM359.155 68.477L358.035 68.6119L357.447 63.7272L356.303 63.865L356.19 62.9238L357.333 62.786L357.114 60.9632L358.234 60.8283L358.453 62.6511L359.597 62.5133L359.71 63.4545L358.567 63.5923L359.155 68.477ZM360.984 60.9442C360.579 60.993 360.205 60.6996 360.156 60.2945C360.106 59.8775 360.401 59.5157 360.806 59.4669C361.211 59.4181 361.583 59.6996 361.633 60.1166C361.682 60.5216 361.389 60.8954 360.984 60.9442ZM361.304 68.2181L360.602 62.3922L361.722 62.2573L362.424 68.0832L361.304 68.2181ZM365.682 67.6907L362.633 62.1476L363.824 62.004L365.491 65.1029C365.76 65.6266 365.985 66.0949 366.124 66.4409C366.173 66.0481 366.303 65.5248 366.444 64.9881L367.351 61.5792L368.518 61.4385L366.79 67.5572L365.682 67.6907ZM372.375 67.0294C370.659 67.2361 369.33 66.1391 369.112 64.3282C368.893 62.5054 369.896 61.1033 371.588 60.8995C373.244 60.7 374.466 61.7131 374.674 63.4406L374.724 63.8576L370.222 64.412C370.454 65.6291 371.179 66.2307 372.287 66.0972C373.156 65.9924 373.685 65.5661 373.795 64.876L374.844 64.7497C374.709 66.0351 373.816 66.8557 372.375 67.0294ZM371.701 61.8407C370.724 61.9584 370.175 62.6168 370.156 63.6586L373.515 63.2538C373.399 62.2888 372.69 61.7215 371.701 61.8407ZM379.238 58.7449C378.833 58.7937 378.459 58.5003 378.411 58.0953C378.36 57.6783 378.655 57.3164 379.06 57.2676C379.465 57.2188 379.838 57.5003 379.888 57.9173C379.937 58.3224 379.643 58.6961 379.238 58.7449ZM379.559 66.0188L378.857 60.193L379.977 60.058L380.679 65.8839L379.559 66.0188ZM381.624 64.0537L382.696 63.9245C382.768 64.5202 383.264 64.8231 384.003 64.7341C384.789 64.6393 385.203 64.2631 385.138 63.727C385.091 63.3338 384.872 63.1185 384.245 63.0369L383.192 62.922C382.125 62.7967 381.575 62.3433 381.472 61.4855C381.343 60.4132 382.166 59.625 383.453 59.47C384.728 59.3164 385.648 59.9308 385.805 61.0359L384.733 61.1651C384.639 60.5842 384.201 60.2622 383.522 60.344C382.819 60.4287 382.463 60.7858 382.528 61.322C382.575 61.7151 382.893 61.9428 383.482 62.0169L384.536 62.1436C385.554 62.2627 386.097 62.6566 386.202 63.5263C386.335 64.6343 385.467 65.4521 384.085 65.6186C382.715 65.7836 381.758 65.1617 381.624 64.0537ZM68.9186 121.574L67.7987 121.709L67.2102 116.824L66.0665 116.962L65.9531 116.021L67.0968 115.883L66.8772 114.06L67.9971 113.925L68.2167 115.748L69.3604 115.61L69.4738 116.551L68.3301 116.689L68.9186 121.574ZM73.6956 115.04L73.8191 116.064L73.3187 116.125C72.2584 116.252 71.6806 116.975 71.8155 118.094L72.1873 121.18L71.0674 121.315L70.3669 115.501L71.4153 115.375L71.593 116.248C71.7581 115.612 72.2931 115.136 73.0913 115.04C73.2939 115.016 73.4635 115.019 73.6956 115.04ZM77.7752 120.652C76.0597 120.859 74.7309 119.762 74.5127 117.951C74.2931 116.128 75.2966 114.726 76.9884 114.522C78.6444 114.323 79.8664 115.336 80.0745 117.063L80.1247 117.48L75.6227 118.035C75.854 119.252 76.5791 119.853 77.6871 119.72C78.5568 119.615 79.0856 119.189 79.1959 118.499L80.2443 118.372C80.1091 119.658 79.2168 120.478 77.7752 120.652ZM77.1018 115.463C76.1248 115.581 75.5757 116.239 75.5561 117.281L78.9158 116.876C78.7996 115.911 78.0906 115.344 77.1018 115.463ZM82.8213 119.899L81.7014 120.034L80.9995 114.208L82.0122 114.086L82.239 114.965C82.5279 114.254 83.2192 113.771 84.0413 113.672C85.5782 113.487 86.3945 114.344 86.5739 115.833L87.0031 119.395L85.8832 119.53L85.4842 116.218C85.3421 115.039 84.7366 114.628 83.8788 114.731C82.8304 114.858 82.3132 115.681 82.4496 116.813L82.8213 119.899ZM90.9065 119.07C89.2148 119.274 88.038 118.134 87.8242 116.359C87.6089 114.572 88.4875 113.137 90.215 112.929C91.1085 112.821 91.9065 113.124 92.3858 113.791L91.9178 109.907L93.0258 109.774L94.0822 118.542L93.0815 118.663L92.8584 117.614C92.5733 118.458 91.8358 118.958 90.9065 119.07ZM91.0109 118.03C92.1546 117.892 92.7556 116.962 92.6092 115.746C92.4657 114.555 91.6594 113.782 90.5157 113.92C89.372 114.058 88.8081 114.996 88.9517 116.187C89.0967 117.39 89.8672 118.168 91.0109 118.03ZM95.3775 111.074C94.9724 111.123 94.5987 110.829 94.5499 110.424C94.4996 110.007 94.7945 109.645 95.1995 109.596C95.6046 109.548 95.9769 109.829 96.0272 110.246C96.076 110.651 95.7826 111.025 95.3775 111.074ZM95.6979 118.348L94.996 112.522L96.1159 112.387L96.8178 118.213L95.6979 118.348ZM99.5635 117.882L98.4436 118.017L97.7417 112.191L98.7544 112.069L98.9812 112.948C99.2702 112.237 99.9615 111.754 100.784 111.655C102.32 111.47 103.137 112.327 103.316 113.816L103.745 117.378L102.625 117.513L102.226 114.201C102.084 113.022 101.479 112.611 100.621 112.714C99.5726 112.841 99.0554 113.664 99.1918 114.796L99.5635 117.882ZM104.558 114.174C104.36 112.53 105.265 111.115 106.957 110.912C107.898 110.798 108.677 111.139 109.134 111.822L109.098 110.823L110.099 110.702L110.772 116.29C110.993 118.125 110.002 119.429 108.215 119.644C106.63 119.835 105.438 119.072 105.046 117.62L106.166 117.485C106.412 118.326 107.116 118.749 108.093 118.631C109.189 118.499 109.818 117.698 109.684 116.59L109.543 115.423C109.244 116.148 108.53 116.645 107.613 116.755C105.957 116.955 104.755 115.806 104.558 114.174ZM105.675 114.015C105.807 115.111 106.59 115.887 107.686 115.755C108.818 115.619 109.411 114.725 109.273 113.582C109.138 112.462 108.374 111.732 107.23 111.87C106.11 112.005 105.546 112.943 105.675 114.015ZM114.942 113.068C114.725 111.269 115.859 109.851 117.611 109.64C119.35 109.431 120.789 110.538 121.006 112.337C121.222 114.136 120.088 115.554 118.349 115.764C116.597 115.975 115.158 114.867 114.942 113.068ZM116.073 112.932C116.22 114.147 117.096 114.899 118.228 114.763C119.348 114.628 120.032 113.688 119.886 112.472C119.739 111.257 118.851 110.506 117.731 110.641C116.599 110.777 115.927 111.716 116.073 112.932ZM123.717 114.972L122.597 115.107L121.895 109.281L122.908 109.159L123.135 110.038C123.424 109.327 124.115 108.844 124.937 108.745C126.474 108.56 127.29 109.417 127.47 110.906L127.899 114.468L126.779 114.603L126.38 111.291C126.238 110.112 125.632 109.701 124.774 109.804C123.726 109.931 123.209 110.755 123.345 111.886L123.717 114.972ZM131.156 106.425L131.026 105.353L137.377 104.588L137.506 105.66L134.92 105.971L135.829 113.513L134.661 113.653L133.753 106.112L131.156 106.425ZM140.183 112.988L137.575 107.392L138.731 107.253L140.06 110.163C140.243 110.576 140.415 111.002 140.584 111.502C140.618 110.978 140.714 110.471 140.799 110.074L141.411 106.93L142.555 106.792L143.885 109.702C144.014 109.976 144.287 110.632 144.432 111.038C144.472 110.562 144.53 110.144 144.635 109.611L145.247 106.468L146.415 106.327L145.127 112.393L144.067 112.52L142.678 109.521C142.417 108.96 142.244 108.522 142.145 108.207C142.12 108.5 142.059 108.894 141.929 109.623L141.291 112.855L140.183 112.988ZM147.757 104.763C147.351 104.812 146.978 104.519 146.929 104.114C146.879 103.697 147.174 103.335 147.579 103.286C147.984 103.237 148.356 103.519 148.406 103.936C148.455 104.341 148.162 104.714 147.757 104.763ZM148.077 112.037L147.375 106.211L148.495 106.076L149.197 111.902L148.077 112.037ZM152.467 111.508L151.347 111.643L150.758 106.759L149.615 106.896L149.501 105.955L150.645 105.817L150.425 103.995L151.545 103.86L151.765 105.682L152.909 105.545L153.022 106.486L151.878 106.624L152.467 111.508ZM156.364 111.039L155.244 111.174L154.656 106.289L153.512 106.427L153.399 105.486L154.543 105.348L154.323 103.525L155.443 103.39L155.663 105.213L156.806 105.075L156.92 106.016L155.776 106.154L156.364 111.039ZM160.986 110.627C159.27 110.834 157.942 109.737 157.724 107.926C157.504 106.103 158.507 104.701 160.199 104.497C161.855 104.298 163.077 105.311 163.285 107.038L163.336 107.455L158.834 108.01C159.065 109.227 159.79 109.828 160.898 109.695C161.768 109.59 162.296 109.164 162.407 108.474L163.455 108.347C163.32 109.633 162.428 110.453 160.986 110.627ZM160.313 105.438C159.336 105.556 158.786 106.214 158.767 107.256L162.127 106.851C162.01 105.886 161.301 105.319 160.313 105.438ZM167.54 103.734L167.664 104.758L167.164 104.818C166.103 104.946 165.525 105.668 165.66 106.788L166.032 109.874L164.912 110.009L164.212 104.195L165.26 104.069L165.438 104.942C165.603 104.305 166.138 103.83 166.936 103.734C167.139 103.709 167.308 103.713 167.54 103.734ZM169.207 109.637C168.743 109.693 168.304 109.359 168.249 108.906C168.193 108.441 168.54 108.013 169.005 107.957C169.458 107.902 169.897 108.236 169.953 108.701C170.007 109.153 169.66 109.582 169.207 109.637ZM178.687 108.482C176.233 108.778 174.388 107.211 174.067 104.543C173.746 101.886 175.21 99.8846 177.676 99.5874C179.618 99.3535 181.246 100.33 181.78 102.054L180.529 102.205C180.073 101.124 179.026 100.561 177.775 100.712C176.035 100.921 175.05 102.37 175.292 104.383C175.535 106.396 176.836 107.569 178.576 107.36C179.839 107.207 180.758 106.408 180.952 105.309L182.191 105.159C182.028 106.92 180.629 108.248 178.687 108.482ZM183.027 104.865C182.811 103.066 183.945 101.648 185.697 101.437C187.436 101.228 188.875 102.336 189.092 104.135C189.308 105.934 188.174 107.352 186.434 107.561C184.683 107.772 183.244 106.664 183.027 104.865ZM184.159 104.729C184.306 105.944 185.182 106.697 186.314 106.56C187.434 106.425 188.118 105.485 187.972 104.27C187.825 103.054 186.937 102.303 185.817 102.438C184.685 102.574 184.013 103.514 184.159 104.729ZM191.803 106.769L190.683 106.904L189.981 101.078L190.994 100.956L191.22 101.835C191.509 101.124 192.201 100.642 193.023 100.543C194.56 100.357 195.376 101.214 195.555 102.703L195.985 106.265L194.865 106.4L194.466 103.088C194.324 101.909 193.718 101.498 192.86 101.602C191.812 101.728 191.295 102.552 191.431 103.684L191.803 106.769ZM196.785 104.453L197.858 104.323C197.93 104.919 198.425 105.222 199.164 105.133C199.95 105.038 200.364 104.662 200.3 104.126C200.252 103.733 200.033 103.517 199.407 103.436L198.353 103.321C197.287 103.196 196.737 102.742 196.633 101.884C196.504 100.812 197.328 100.024 198.614 99.869C199.889 99.7154 200.809 100.33 200.967 101.435L199.894 101.564C199.8 100.983 199.362 100.661 198.683 100.743C197.98 100.828 197.625 101.185 197.689 101.721C197.737 102.114 198.054 102.342 198.643 102.416L199.698 102.543C200.715 102.662 201.259 103.056 201.363 103.925C201.497 105.033 200.628 105.851 199.246 106.018C197.876 106.183 196.919 105.561 196.785 104.453ZM202.486 98.1697C202.081 98.2185 201.707 97.9251 201.658 97.52C201.608 97.103 201.903 96.7412 202.308 96.6924C202.713 96.6436 203.085 96.9251 203.135 97.342C203.184 97.7471 202.891 98.1209 202.486 98.1697ZM202.806 105.444L202.104 99.6177L203.224 99.4828L203.926 105.309L202.806 105.444ZM207.904 104.974C206.212 105.178 205.036 104.039 204.822 102.264C204.607 100.477 205.485 99.0412 207.213 98.8331C208.106 98.7254 208.904 99.0281 209.383 99.6956L208.916 95.8117L210.024 95.6782L211.08 104.447L210.079 104.567L209.856 103.519C209.571 104.363 208.834 104.862 207.904 104.974ZM208.009 103.934C209.152 103.797 209.753 102.866 209.607 101.651C209.463 100.46 208.657 99.6864 207.513 99.8242C206.37 99.962 205.806 100.9 205.949 102.092C206.094 103.295 206.865 104.072 208.009 103.934ZM215.227 104.092C213.511 104.299 212.182 103.202 211.964 101.391C211.745 99.5683 212.748 98.1662 214.44 97.9624C216.096 97.7628 217.318 98.776 217.526 100.503L217.576 100.92L213.074 101.475C213.305 102.692 214.031 103.294 215.138 103.16C216.008 103.055 216.537 102.629 216.647 101.939L217.696 101.813C217.56 103.098 216.668 103.919 215.227 104.092ZM214.553 98.9036C213.576 99.0213 213.027 99.6797 213.008 100.721L216.367 100.317C216.251 99.3517 215.542 98.7844 214.553 98.9036ZM221.781 97.1988L221.904 98.2234L221.404 98.2837C220.344 98.4114 219.766 99.1337 219.901 100.254L220.273 103.339L219.153 103.474L218.452 97.6602L219.501 97.5339L219.678 98.4069C219.844 97.7706 220.379 97.2952 221.177 97.1991C221.379 97.1747 221.549 97.1784 221.781 97.1988ZM228.518 102.491C227.267 102.642 226.443 102.028 226.316 100.967C226.186 99.8952 226.904 99.1319 228.261 98.8596L230.079 98.4956L230.059 98.3288C229.941 97.3518 229.316 97.0767 228.529 97.1714C227.588 97.2848 227.102 97.7664 227.187 98.4693L226.21 98.587C226.064 97.3718 226.968 96.453 228.469 96.2721C229.911 96.0984 230.98 96.7432 231.169 98.3158L231.61 101.973L230.657 102.088L230.424 101.161C230.207 101.864 229.459 102.378 228.518 102.491ZM228.735 101.583C229.795 101.455 230.355 100.686 230.223 99.5902L230.186 99.2804L228.711 99.579C227.733 99.7934 227.374 100.223 227.443 100.795C227.518 101.415 228.008 101.67 228.735 101.583ZM234.281 101.652L233.161 101.787L232.459 95.9607L233.46 95.8401L233.659 96.5897C233.891 96.0058 234.464 95.5499 235.286 95.4508C236.192 95.3417 236.89 95.717 237.275 96.4078C237.462 95.6481 238.11 95.1107 239.015 95.0016C240.35 94.8408 241.26 95.5772 241.423 96.9234L241.882 100.736L240.786 100.868L240.359 97.3295C240.249 96.4121 239.673 95.9497 238.887 96.0444C238.041 96.1463 237.553 96.8095 237.665 97.7387L238.081 101.194L236.973 101.327L236.546 97.7769C236.435 96.8595 235.874 96.4194 235.088 96.5142C234.242 96.6161 233.753 97.2673 233.865 98.1966L234.281 101.652ZM243.749 103.158L242.732 94.723L243.745 94.601L243.955 95.6393C244.252 94.7937 244.988 94.282 245.917 94.1701C247.585 93.9691 248.772 95.0952 248.988 96.8823C249.201 98.6574 248.385 100.109 246.658 100.318C245.728 100.43 244.907 100.13 244.439 99.4608L244.868 103.023L243.749 103.158ZM244.216 97.5055C244.359 98.6969 245.154 99.4714 246.297 99.3336C247.441 99.1959 248.017 98.2562 247.873 97.0649C247.728 95.8616 246.946 95.0856 245.802 95.2234C244.659 95.3612 244.069 96.2903 244.216 97.5055ZM251.722 99.5504L250.602 99.6853L249.545 90.9167L250.665 90.7818L251.722 99.5504ZM253.05 92.0779C252.645 92.1267 252.271 91.8333 252.222 91.4282C252.172 91.0112 252.467 90.6494 252.872 90.6006C253.277 90.5518 253.649 90.8333 253.7 91.2502C253.748 91.6553 253.455 92.0291 253.05 92.0779ZM253.37 99.3518L252.668 93.5259L253.788 93.391L254.49 99.2169L253.37 99.3518ZM254.795 93.2698L255.652 93.1664L255.54 92.2371C255.368 90.8075 256.084 90.129 257.144 90.0012C257.359 89.9754 257.611 89.9571 257.841 89.9656L257.957 90.9306L257.457 90.9909C256.73 91.0785 256.584 91.4708 256.66 92.1022L256.772 93.0315L258.154 92.865L258.268 93.8062L256.886 93.9727L257.474 98.8574L256.354 98.9923L255.766 94.1076L254.908 94.2109L254.795 93.2698ZM259.652 101.242L259.541 100.325L260.292 100.234C260.828 100.17 261.247 100.035 261.432 99.2629L261.567 98.6786L258.481 92.8257L259.66 92.6836L261.917 97.1738L263.079 92.2716L264.235 92.1324L262.343 99.6004C262.07 100.649 261.536 101.136 260.643 101.243C260.274 101.288 259.958 101.278 259.652 101.242ZM265.511 90.5767C265.105 90.6255 264.732 90.3321 264.683 89.927C264.633 89.51 264.927 89.1481 265.333 89.0993C265.738 89.0505 266.11 89.332 266.16 89.749C266.209 90.1541 265.916 90.5279 265.511 90.5767ZM265.831 97.8506L265.129 92.0247L266.249 91.8898L266.951 97.7156L265.831 97.8506ZM269.697 97.3848L268.577 97.5198L267.875 91.6939L268.887 91.5719L269.114 92.4511C269.403 91.7394 270.094 91.2573 270.917 91.1582C272.453 90.9731 273.27 91.8296 273.449 93.3188L273.878 96.881L272.758 97.016L272.359 93.7039C272.217 92.5244 271.612 92.1139 270.754 92.2173C269.706 92.3436 269.188 93.1673 269.325 94.2992L269.697 97.3848ZM274.691 93.6768C274.493 92.0327 275.398 90.6182 277.09 90.4144C278.031 90.301 278.81 90.6424 279.267 91.3246L279.231 90.3257L280.232 90.2052L280.905 95.7928C281.126 97.6275 280.135 98.9314 278.348 99.1467C276.763 99.3376 275.571 98.5747 275.179 97.1232L276.299 96.9883C276.545 97.8289 277.249 98.2517 278.226 98.134C279.322 98.002 279.951 97.201 279.817 96.093L279.676 94.9255C279.377 95.6505 278.663 96.1474 277.746 96.258C276.09 96.4575 274.888 95.309 274.691 93.6768ZM275.808 93.518C275.94 94.6141 276.723 95.3901 277.819 95.2581C278.951 95.1217 279.544 94.2283 279.406 93.0846C279.271 91.9647 278.507 91.2349 277.363 91.3727C276.243 91.5076 275.679 92.4458 275.808 93.518ZM287.452 95.2458L286.332 95.3807L285.743 90.496L284.6 90.6338L284.486 89.6926L285.63 89.5548L285.41 87.732L286.53 87.5971L286.75 89.4199L287.893 89.2821L288.007 90.2233L286.863 90.3611L287.452 95.2458ZM290.719 94.8401L289.599 94.975L288.544 86.2183L289.664 86.0834L290.126 89.9196C290.419 89.2437 291.071 88.7301 291.976 88.621C293.465 88.4416 294.293 89.2967 294.473 90.7859L294.902 94.3482L293.782 94.4831L293.383 91.171C293.241 89.9916 292.624 89.5825 291.79 89.6829C290.706 89.8136 290.217 90.6702 290.337 91.671L290.719 94.8401ZM296.133 86.8874C295.728 86.9362 295.354 86.6428 295.305 86.2377C295.255 85.8207 295.55 85.4589 295.955 85.4101C296.36 85.3613 296.732 85.6427 296.783 86.0597C296.831 86.4648 296.538 86.8386 296.133 86.8874ZM296.453 94.1613L295.751 88.3354L296.871 88.2005L297.573 94.0264L296.453 94.1613ZM298.519 92.1961L299.591 92.067C299.663 92.6626 300.158 92.9655 300.897 92.8765C301.683 92.7818 302.097 92.4056 302.033 91.8695C301.985 91.4763 301.766 91.261 301.14 91.1793L300.086 91.0645C299.02 90.9392 298.47 90.4857 298.366 89.6279C298.237 88.5557 299.061 87.7675 300.347 87.6125C301.622 87.4589 302.542 88.0732 302.7 89.1784L301.627 89.3075C301.533 88.7266 301.096 88.4047 300.417 88.4865C299.714 88.5712 299.358 88.9283 299.422 89.4644C299.47 89.8576 299.787 90.0852 300.376 90.1593L301.431 90.2861C302.449 90.4052 302.992 90.7991 303.096 91.6688C303.23 92.7768 302.361 93.5945 300.979 93.761C299.609 93.9261 298.652 93.3041 298.519 92.1961ZM309.048 92.6439L306.44 87.0477L307.595 86.9085L308.925 89.8183C309.108 90.2314 309.28 90.6579 309.449 91.1573C309.483 90.6335 309.579 90.1264 309.664 89.7293L310.276 86.5855L311.42 86.4477L312.749 89.3576C312.879 89.632 313.152 90.2882 313.297 90.6937C313.336 90.2175 313.395 89.7995 313.5 89.2672L314.112 86.1233L315.28 85.9827L313.992 92.0482L312.932 92.176L311.543 89.1766C311.282 88.6158 311.108 88.1774 311.01 87.8629C310.985 88.156 310.924 88.5502 310.794 89.2789L310.156 92.5104L309.048 92.6439ZM316.621 84.419C316.216 84.4678 315.843 84.1744 315.794 83.7693C315.744 83.3523 316.038 82.9905 316.443 82.9417C316.849 82.8929 317.221 83.1743 317.271 83.5913C317.32 83.9964 317.026 84.3702 316.621 84.419ZM316.942 91.6929L316.24 85.867L317.36 85.7321L318.062 91.558L316.942 91.6929ZM321.332 91.164L320.212 91.2989L319.623 86.4143L318.48 86.552L318.366 85.6109L319.51 85.4731L319.29 83.6502L320.41 83.5153L320.63 85.3381L321.773 85.2003L321.887 86.1415L320.743 86.2793L321.332 91.164ZM324.599 90.7583L323.479 90.8932L322.424 82.1365L323.544 82.0016L324.006 85.8379C324.299 85.1619 324.951 84.6484 325.856 84.5393C327.345 84.3599 328.173 85.2149 328.353 86.7042L328.782 90.2664L327.662 90.4013L327.263 87.0893C327.121 85.9098 326.504 85.5007 325.67 85.6012C324.586 85.7318 324.097 86.5884 324.217 87.5892L324.599 90.7583ZM335.312 89.6248C334.061 89.7755 333.238 89.1615 333.11 88.1012C332.981 87.029 333.698 86.2656 335.056 85.9933L336.873 85.6293L336.853 85.4625C336.735 84.4856 336.11 84.2104 335.324 84.3052C334.382 84.4186 333.897 84.9001 333.981 85.603L333.004 85.7207C332.858 84.5055 333.762 83.5867 335.264 83.4059C336.705 83.2322 337.774 83.877 337.963 85.4496L338.404 89.1072L337.451 89.222L337.218 88.2952C337.001 88.9982 336.253 89.5114 335.312 89.6248ZM335.529 88.7163C336.589 88.5886 337.149 87.82 337.017 86.724L336.98 86.4142L335.505 86.7128C334.528 86.9272 334.168 87.3573 334.237 87.9291C334.312 88.5486 334.802 88.8039 335.529 88.7163ZM342.476 85.6191C342.26 83.8321 343.158 82.4548 344.826 82.2538C345.743 82.1433 346.592 82.4641 347.069 83.2164L347.038 82.1565L348.039 82.036L349.055 90.471L347.947 90.6045L347.518 87.0422C347.211 87.8044 346.484 88.2909 345.555 88.4028C343.839 88.6095 342.689 87.3943 342.476 85.6191ZM343.613 85.5304C343.757 86.7218 344.527 87.4992 345.671 87.3614C346.815 87.2237 347.414 86.2812 347.271 85.0898C347.124 83.8746 346.319 83.1134 345.176 83.2512C344.032 83.389 343.468 84.3271 343.613 85.5304ZM353.681 81.3562L354.789 81.2227L355.491 87.0486L354.49 87.1691L354.265 86.3019C354.005 86.9497 353.281 87.4599 352.423 87.5633C351.065 87.7269 350.192 86.9014 350.019 85.4717L349.583 81.8499L350.703 81.715L351.095 84.9675C351.245 86.2184 351.839 86.6304 352.697 86.5271C353.721 86.4036 354.202 85.6809 354.052 84.43L353.681 81.3562ZM356.267 83.9939C356.05 82.1949 357.185 80.777 358.936 80.566C360.675 80.3564 362.114 81.4643 362.331 83.2633C362.548 85.0623 361.413 86.4801 359.674 86.6897C357.922 86.9007 356.484 85.7929 356.267 83.9939ZM357.399 83.8575C357.545 85.0727 358.421 85.8253 359.553 85.6889C360.673 85.554 361.357 84.6134 361.211 83.3982C361.065 82.183 360.176 81.4318 359.057 81.5668C357.925 81.7031 357.252 82.6423 357.399 83.8575ZM365.508 85.8417L364.388 85.9767L363.8 81.092L362.656 81.2298L362.543 80.2886L363.686 80.1508L363.467 78.328L364.587 78.1931L364.806 80.0159L365.95 79.8781L366.064 80.8193L364.92 80.9571L365.508 85.8417ZM370.13 85.43C368.414 85.6367 367.086 84.5397 366.867 82.7288C366.648 80.906 367.651 79.5039 369.343 79.3001C370.999 79.1006 372.221 80.1137 372.429 81.8412L372.479 82.2582L367.977 82.8127C368.209 84.0297 368.934 84.6313 370.042 84.4978C370.912 84.3931 371.44 83.9667 371.551 83.2766L372.599 83.1503C372.464 84.4357 371.572 85.2563 370.13 85.43ZM369.456 80.2413C368.48 80.359 367.93 81.0174 367.911 82.0592L371.271 81.6544C371.154 80.6894 370.445 80.1222 369.456 80.2413ZM375.992 78.6682L376.85 78.5649L376.738 77.6356C376.566 76.2059 377.282 75.5274 378.342 75.3997C378.557 75.3738 378.808 75.3556 379.039 75.3641L379.155 76.3291L378.655 76.3894C377.928 76.4769 377.782 76.8692 377.858 77.5007L377.97 78.43L379.352 78.2635L379.465 79.2046L378.083 79.3711L378.672 84.2558L377.552 84.3907L376.964 79.5061L376.106 79.6094L375.992 78.6682ZM383.723 77.6885L383.847 78.7131L383.346 78.7734C382.286 78.9011 381.708 79.6234 381.843 80.7433L382.215 83.829L381.095 83.9639L380.395 78.1499L381.443 78.0236L381.621 78.8966C381.786 78.2603 382.321 77.7849 383.119 77.6888C383.322 77.6644 383.491 77.6681 383.723 77.6885ZM384.539 80.5877C384.322 78.7887 385.457 77.3708 387.208 77.1599C388.948 76.9503 390.386 78.0581 390.603 79.8571C390.82 81.6561 389.685 83.074 387.946 83.2836C386.195 83.4946 384.756 82.3867 384.539 80.5877ZM385.671 80.4514C385.817 81.6666 386.693 82.4192 387.825 82.2828C388.945 82.1479 389.63 81.2073 389.483 79.9921C389.337 78.7768 388.449 78.0257 387.329 78.1606C386.197 78.297 385.524 79.2362 385.671 80.4514ZM393.314 82.4918L392.194 82.6267L391.493 76.8008L392.493 76.6802L392.692 77.4298C392.924 76.8459 393.498 76.39 394.32 76.291C395.225 76.1819 395.923 76.5571 396.309 77.248C396.495 76.4882 397.143 75.9508 398.049 75.8417C399.383 75.6809 400.294 76.4173 400.456 77.7636L400.915 81.576L399.819 81.7081L399.393 78.1696C399.283 77.2523 398.707 76.7898 397.921 76.8845C397.075 76.9864 396.587 77.6496 396.699 78.5789L397.115 82.0339L396.007 82.1674L395.579 78.617C395.469 77.6997 394.908 77.2596 394.122 77.3543C393.276 77.4562 392.786 78.1075 392.898 79.0367L393.314 82.4918ZM405.48 83.6731L405.369 82.7557L406.12 82.6653C406.656 82.6007 407.075 82.4656 407.26 81.694L407.395 81.1096L404.309 75.2567L405.488 75.1146L407.746 79.6049L408.908 74.7027L410.063 74.5635L408.171 82.0314C407.898 83.0796 407.365 83.5669 406.471 83.6745C406.102 83.719 405.786 83.7087 405.48 83.6731ZM410.705 77.4353C410.488 75.6363 411.623 74.2184 413.374 74.0074C415.114 73.7979 416.553 74.9057 416.769 76.7047C416.986 78.5037 415.852 79.9216 414.112 80.1311C412.361 80.3421 410.922 79.2343 410.705 77.4353ZM411.837 77.2989C411.983 78.5142 412.86 79.2667 413.992 79.1304C415.111 78.9955 415.796 78.0548 415.649 76.8396C415.503 75.6244 414.615 74.8733 413.495 75.0082C412.363 75.1445 411.691 76.0837 411.837 77.2989ZM421.546 73.18L422.654 73.0466L423.356 78.8724L422.355 78.993L422.13 78.1257C421.869 78.7735 421.145 79.2838 420.288 79.3872C418.929 79.5508 418.056 78.7253 417.884 77.2956L417.448 73.6738L418.568 73.5389L418.959 76.7914C419.11 78.0423 419.704 78.4543 420.562 78.3509C421.586 78.2275 422.067 77.5048 421.916 76.2538L421.546 73.18ZM427.609 72.4013L427.733 73.4258L427.232 73.4861C426.172 73.6139 425.594 74.3362 425.729 75.4561L426.101 78.5418L424.981 78.6767L424.28 72.8627L425.329 72.7364L425.506 73.6094C425.672 72.9731 426.207 72.4977 427.005 72.4015C427.207 72.3771 427.377 72.3809 427.609 72.4013ZM73.2081 139.32C70.7538 139.616 68.9092 138.049 68.5877 135.381C68.2676 132.724 69.7307 130.722 72.1969 130.425C74.1388 130.191 75.7673 131.168 76.3014 132.892L75.0504 133.043C74.5938 131.962 73.547 131.399 72.2961 131.55C70.5566 131.759 69.5708 133.207 69.8134 135.221C70.0559 137.234 71.3576 138.407 73.097 138.198C74.3598 138.045 75.2788 137.246 75.4727 136.147L76.7118 135.997C76.5491 137.757 75.15 139.086 73.2081 139.32ZM83.7261 137.92L78.4721 138.553L77.4343 129.939L82.6883 129.306L82.8175 130.379L78.7311 130.871L79.0554 133.564L82.7368 133.12L82.8617 134.157L79.1803 134.6L79.509 137.328L83.5955 136.836L83.7261 137.92ZM92.6662 132.468C92.9819 135.089 91.4874 137.13 89.0451 137.424C86.6146 137.717 84.7018 136.086 84.386 133.465C84.0717 130.856 85.5529 128.804 87.9833 128.511C90.4257 128.217 92.3504 129.847 92.6662 132.468ZM91.439 132.616C91.1979 130.614 89.871 129.432 88.1197 129.643C86.3684 129.854 85.372 131.316 85.6132 133.317C85.8543 135.319 87.1707 136.514 88.922 136.303C90.6734 136.092 91.6787 134.605 91.439 132.616ZM94.8045 136.731C94.3398 136.786 93.9007 136.453 93.8462 136C93.7902 135.535 94.1374 135.107 94.6021 135.051C95.0548 134.996 95.4939 135.33 95.5499 135.795C95.6044 136.247 95.2572 136.676 94.8045 136.731Z" fill="#8F899C"/>
</g>
<defs>
<filter id="filter0_d_42_423" x="-2.22412" y="0.00585938" width="462.448" height="174.289" filterUnits="userSpaceOnUse" color-interpolation-filters="sRGB">
<feFlood flood-opacity="0" result="BackgroundImageFix"/>
<feColorMatrix in="SourceAlpha" type="matrix" values="0 0 0 0 0 0 0 0 0 0 0 0 0 0 0 0 0 0 127 0" result="hardAlpha"/>
<feOffset dy="4"/>
<feGaussianBlur stdDeviation="2"/>
<feComposite in2="hardAlpha" operator="out"/>
<feColorMatrix type="matrix" values="0 0 0 0 0.6 0 0 0 0 0.6 0 0 0 0 0.6 0 0 0 0.25 0"/>
<feBlend mode="normal" in2="BackgroundImageFix" result="effect1_dropShadow_42_423"/>
<feBlend mode="normal" in="SourceGraphic" in2="effect1_dropShadow_42_423" result="shape"/>
</filter>
</defs>
</svg>
