<svg width="459" height="155" viewBox="0 0 459 155" fill="none" xmlns="http://www.w3.org/2000/svg">
<g filter="url(#filter0_d_42_435)">
<rect x="2" y="53.5809" width="446.698" height="96" rx="20" transform="rotate(-6.86971 2 53.5809)" fill="white" shape-rendering="crispEdges"/>
<path opacity="0.4" d="M43.649 89.9589L25.649 89.9589C25.239 89.9589 24.899 89.6189 24.899 89.2089C24.899 88.7989 25.239 88.4589 25.649 88.4589L43.649 88.4589C44.059 88.4589 44.399 88.7989 44.399 89.2089C44.399 89.6189 44.059 89.9589 43.649 89.9589Z" fill="#17053E"/>
<path d="M28.249 75.5889L26.649 75.5889C26.099 75.5889 25.649 76.0389 25.649 76.5889L25.649 85.2089C25.649 85.7589 26.099 86.2089 26.649 86.2089L28.249 86.2089C28.799 86.2089 29.249 85.7589 29.249 85.2089L29.249 76.5889C29.249 76.0289 28.799 75.5889 28.249 75.5889Z" fill="#17053E"/>
<path d="M35.449 72.3989L33.849 72.3989C33.299 72.3989 32.849 72.8489 32.849 73.3989L32.849 85.2089C32.849 85.7589 33.299 86.2089 33.849 86.2089L35.449 86.2089C35.999 86.2089 36.449 85.7589 36.449 85.2089L36.449 73.3989C36.449 72.8489 35.999 72.3989 35.449 72.3989Z" fill="#17053E"/>
<path d="M42.649 69.2089L41.049 69.2089C40.499 69.2089 40.049 69.6589 40.049 70.2089L40.049 85.2089C40.049 85.7589 40.499 86.2089 41.049 86.2089L42.649 86.2089C43.199 86.2089 43.649 85.7589 43.649 85.2089L43.649 70.2089C43.649 69.6589 43.199 69.2089 42.649 69.2089Z" fill="#17053E"/>
<path d="M67.2608 75.9354L62.9467 67.7164L64.1977 67.5657L66.9576 72.8172C67.2071 73.2827 67.4328 73.7511 67.689 74.3729C67.8097 73.6694 67.9433 73.0732 68.0404 72.6747L69.4636 66.9312L70.6788 66.7848L68.476 75.789L67.2608 75.9354ZM70.9699 72.5272C70.7531 70.7283 71.8877 69.3104 73.639 69.0994C75.3785 68.8898 76.8173 69.9977 77.034 71.7967C77.2508 73.5956 76.1162 75.0135 74.3768 75.2231C72.6255 75.4341 71.1866 74.3262 70.9699 72.5272ZM72.1017 72.3909C72.2481 73.6061 73.1244 74.3587 74.2562 74.2223C75.3761 74.0874 76.0605 73.1468 75.9141 71.9316C75.7677 70.7164 74.8795 69.9652 73.7596 70.1001C72.6278 70.2365 71.9553 71.1757 72.1017 72.3909ZM79 74.5211L77.7133 74.6761L79.4032 71.5475L77.0234 68.8488L78.322 68.6923L80.0605 70.6827L81.2409 68.3407L82.5156 68.1871L80.8448 71.3738L83.1818 74.0173L81.8832 74.1737L80.1728 72.2162L79 74.5211ZM87.3199 70.4003L85.1397 70.663L85.51 73.7368L84.3424 73.8774L83.3047 65.2637L86.6525 64.8604C88.3443 64.6566 89.5619 65.6339 89.7614 67.29C89.9552 68.8983 88.9998 70.1979 87.3199 70.4003ZM86.5763 65.9332L84.5986 66.1715L85.0134 69.6146L86.9434 69.382C88.0991 69.2428 88.6606 68.4862 88.5329 67.4259C88.4022 66.3417 87.6723 65.8011 86.5763 65.9332ZM92.9562 72.8397L91.7886 72.9803L90.7508 64.3666L94.0033 63.9748C95.85 63.7523 97.0637 64.5972 97.2575 66.2055C97.4011 67.3969 96.9087 68.3265 95.8781 68.8012L98.0672 72.2239L96.7686 72.3804L94.7497 69.1668L92.5457 69.4323L92.9562 72.8397ZM92.0447 65.2744L92.4208 68.3958L94.5176 68.1432C95.6018 68.0126 96.151 67.3541 96.0318 66.3653C95.9113 65.3645 95.2019 64.894 94.1296 65.0232L92.0447 65.2744Z" fill="#17053E"/>
<circle cx="107.944" cy="65.9978" r="2" transform="rotate(-6.86971 107.944 65.9978)" fill="#17053E"/>
<path d="M118.42 67.3424L118.369 66.9135L119.5 66.7771L119.552 67.206C119.654 68.0519 120.192 68.6035 121.145 68.4887C122.122 68.371 122.479 67.7236 122.371 66.8301L121.626 60.6468L122.794 60.5061L123.545 66.7371C123.731 68.2859 122.812 69.3877 121.276 69.5729C119.631 69.7709 118.6 68.8316 118.42 67.3424ZM128.912 62.5974L130.02 62.4639L130.721 68.2898L129.721 68.4104L129.495 67.5431C129.235 68.1909 128.511 68.7012 127.653 68.8045C126.295 68.9682 125.422 68.1426 125.25 66.713L124.813 63.0912L125.933 62.9563L126.325 66.2087C126.476 67.4597 127.069 67.8717 127.927 67.7683C128.952 67.6449 129.433 66.9221 129.282 65.6712L128.912 62.5974ZM131.55 66.4737L132.622 66.3445C132.694 66.9402 133.189 67.2431 133.928 67.1541C134.714 67.0594 135.128 66.6832 135.064 66.147C135.016 65.7539 134.797 65.5386 134.171 65.4569L133.117 65.342C132.051 65.2167 131.501 64.7633 131.397 63.9055C131.268 62.8332 132.092 62.0451 133.378 61.89C134.653 61.7365 135.573 62.3508 135.731 63.4559L134.658 63.5851C134.564 63.0042 134.127 62.6823 133.447 62.7641C132.745 62.8488 132.389 63.2059 132.453 63.742C132.501 64.1352 132.818 64.3628 133.407 64.4369L134.462 64.5636C135.48 64.6828 136.023 65.0767 136.127 65.9464C136.261 67.0544 135.392 67.8721 134.01 68.0386C132.64 68.2037 131.683 67.5817 131.55 66.4737ZM139.214 67.2666L138.094 67.4015L137.506 62.5168L136.362 62.6546L136.249 61.7134L137.393 61.5757L137.173 59.7528L138.293 59.6179L138.512 61.4407L139.656 61.3029L139.77 62.2441L138.626 62.3819L139.214 67.2666ZM145.979 66.4516L144.811 66.5923L143.774 57.9786L144.941 57.8379L150.152 63.9667L149.349 57.3068L150.517 57.1662L151.555 65.7799L150.387 65.9205L145.177 59.7918L145.979 66.4516ZM152.637 62.6882C152.42 60.8892 153.555 59.4713 155.306 59.2603C157.046 59.0508 158.485 60.1586 158.701 61.9576C158.918 63.7566 157.783 65.1745 156.044 65.3841C154.293 65.5951 152.854 64.4872 152.637 62.6882ZM153.769 62.5519C153.915 63.7671 154.792 64.5196 155.923 64.3833C157.043 64.2484 157.728 63.3078 157.581 62.0925C157.435 60.8773 156.547 60.1262 155.427 60.2611C154.295 60.3975 153.623 61.3366 153.769 62.5519ZM161.276 64.6087L158.668 59.0125L159.824 58.8732L161.153 61.7831C161.336 62.1962 161.508 62.6227 161.677 63.122C161.711 62.5983 161.807 62.0911 161.892 61.6941L162.504 58.5503L163.648 58.4125L164.977 61.3223C165.107 61.5968 165.38 62.2529 165.525 62.6584C165.565 62.1823 165.623 61.7643 165.728 61.2319L166.34 58.0881L167.508 57.9474L166.22 64.013L165.16 64.1408L163.771 61.1413C163.51 60.5805 163.337 60.1422 163.238 59.8277C163.213 60.1208 163.152 60.5149 163.022 61.2437L162.384 64.4752L161.276 64.6087Z" fill="#8F899C"/>
<path d="M66.957 97.7926C66.779 96.3153 67.8498 95.171 69.625 94.9571C71.2691 94.759 72.44 95.5487 72.7147 97.0264L71.5352 97.1685C71.3723 96.3179 70.7044 95.8907 69.7394 96.007C68.6552 96.1376 68.0183 96.7703 68.1202 97.6162C68.2035 98.3072 68.6469 98.6768 69.48 98.7698L70.9379 98.9326C72.3825 99.0849 73.1892 99.7613 73.3356 100.976C73.5222 102.525 72.438 103.659 70.6033 103.88C68.852 104.091 67.5739 103.314 67.3244 101.846L68.5158 101.702C68.6387 102.521 69.3928 102.962 70.477 102.832C71.6207 102.694 72.2829 102.07 72.1795 101.212C72.0977 100.533 71.6767 100.149 70.8317 100.057L69.3752 99.9065C67.9306 99.7542 67.1063 99.0316 66.957 97.7926ZM77.4317 103.057C75.7161 103.264 74.3874 102.167 74.1692 100.356C73.9496 98.5335 74.9531 97.1314 76.6449 96.9276C78.3009 96.7281 79.5228 97.7412 79.731 99.4687L79.7812 99.8857L75.2792 100.44C75.5104 101.657 76.2356 102.259 77.3436 102.125C78.2133 102.021 78.7421 101.594 78.8523 100.904L79.9008 100.778C79.7655 102.063 78.8733 102.884 77.4317 103.057ZM76.7583 97.8688C75.7813 97.9865 75.2321 98.6449 75.2126 99.6867L78.5723 99.282C78.456 98.3169 77.7471 97.7497 76.7583 97.8688ZM82.4778 102.305L81.3579 102.439L80.656 96.6136L81.6687 96.4916L81.8955 97.3707C82.1844 96.6591 82.8757 96.1769 83.6978 96.0779C85.2347 95.8927 86.051 96.7492 86.2304 98.2385L86.6595 101.801L85.5396 101.936L85.1406 98.6236C84.9985 97.4441 84.3931 97.0336 83.5353 97.1369C82.4869 97.2632 81.9697 98.087 82.106 99.2188L82.4778 102.305ZM89.8548 101.416L88.7349 101.551L88.1464 96.666L87.0027 96.8038L86.8893 95.8626L88.033 95.7248L87.8134 93.902L88.9333 93.7671L89.1529 95.5899L90.2966 95.4521L90.41 96.3933L89.2663 96.5311L89.8548 101.416ZM91.6832 93.883C91.2781 93.9318 90.9044 93.6384 90.8556 93.2333C90.8053 92.8163 91.1002 92.4545 91.5052 92.4057C91.9103 92.3569 92.2826 92.6383 92.3329 93.0553C92.3817 93.4604 92.0883 93.8342 91.6832 93.883ZM92.0036 101.157L91.3017 95.331L92.4216 95.1961L93.1235 101.022L92.0036 101.157ZM95.8692 100.691L94.7493 100.826L94.0474 95.0002L95.0482 94.8796L95.2473 95.6292C95.4791 95.0453 96.0527 94.5894 96.8748 94.4904C97.7802 94.3813 98.4781 94.7565 98.8635 95.4474C99.05 94.6876 99.6983 94.1502 100.604 94.0411C101.938 93.8803 102.849 94.6167 103.011 95.963L103.47 99.7754L102.374 99.9075L101.948 96.369C101.837 95.4517 101.262 94.9892 100.476 95.0839C99.6297 95.1858 99.1415 95.849 99.2535 96.7783L99.6697 100.233L98.5618 100.367L98.134 96.8164C98.0235 95.8991 97.4628 95.459 96.6765 95.5537C95.8306 95.6556 95.341 96.3069 95.453 97.2361L95.8692 100.691ZM107.554 99.4285C105.838 99.6352 104.509 98.5382 104.291 96.7273C104.072 94.9045 105.075 93.5024 106.767 93.2986C108.423 93.0991 109.645 94.1122 109.853 95.8397L109.903 96.2567L105.401 96.8112C105.632 98.0282 106.358 98.6298 107.466 98.4963C108.335 98.3915 108.864 97.9652 108.974 97.2751L110.023 97.1488C109.888 98.4342 108.995 99.2548 107.554 99.4285ZM106.88 94.2398C105.903 94.3575 105.354 95.0159 105.335 96.0577L108.694 95.6529C108.578 94.6879 107.869 94.1206 106.88 94.2398ZM112.6 98.6755L111.48 98.8104L110.778 92.9846L111.791 92.8625L112.017 93.7417C112.306 93.0301 112.998 92.5479 113.82 92.4489C115.357 92.2637 116.173 93.1202 116.352 94.6095L116.782 98.1717L115.662 98.3066L115.263 94.9946C115.121 93.8151 114.515 93.4046 113.657 93.5079C112.609 93.6342 112.092 94.458 112.228 95.5898L112.6 98.6755ZM119.977 97.7867L118.857 97.9217L118.268 93.037L117.125 93.1748L117.011 92.2336L118.155 92.0958L117.935 90.273L119.055 90.1381L119.275 91.9609L120.419 91.8231L120.532 92.7643L119.388 92.9021L119.977 97.7867ZM127.027 96.9373L125.907 97.0722L125.319 92.1876L124.175 92.3253L124.062 91.3842L125.206 91.2464L124.986 89.4235L126.106 89.2886L126.326 91.1114L127.469 90.9736L127.583 91.9148L126.439 92.0526L127.027 96.9373ZM128.385 93.8125C128.168 92.0135 129.303 90.5956 131.054 90.3846C132.794 90.175 134.233 91.2829 134.449 93.0819C134.666 94.8809 133.531 96.2988 131.792 96.5083C130.041 96.7193 128.602 95.6115 128.385 93.8125ZM129.517 93.6761C129.663 94.8913 130.54 95.6439 131.671 95.5076C132.791 95.3726 133.476 94.432 133.329 93.2168C133.183 92.0016 132.295 91.2504 131.175 91.3854C130.043 91.5217 129.37 92.4609 129.517 93.6761ZM137.024 95.733L134.416 90.1367L135.571 89.9975L136.901 92.9074C137.084 93.3205 137.256 93.7469 137.425 94.2463C137.459 93.7225 137.555 93.2154 137.64 92.8184L138.252 89.6746L139.396 89.5368L140.725 92.4466C140.855 92.7211 141.128 93.3772 141.273 93.7827C141.313 93.3066 141.371 92.8886 141.476 92.3562L142.088 89.2124L143.256 89.0717L141.968 95.1373L140.908 95.265L139.519 92.2656C139.258 91.7048 139.084 91.2664 138.986 90.9519C138.961 91.245 138.9 91.6392 138.77 92.368L138.132 95.5995L137.024 95.733ZM146.371 94.7519C145.12 94.9026 144.297 94.2887 144.169 93.2283C144.04 92.1561 144.758 91.3927 146.115 91.1205L147.932 90.7564L147.912 90.5897C147.795 89.6127 147.169 89.3375 146.383 89.4323C145.442 89.5457 144.956 90.0272 145.041 90.7302L144.064 90.8479C143.917 89.6326 144.822 88.7139 146.323 88.533C147.764 88.3593 148.833 89.0041 149.023 90.5767L149.463 94.2343L148.51 94.3491L148.278 93.4223C148.06 94.1253 147.312 94.6385 146.371 94.7519ZM146.588 93.8434C147.648 93.7157 148.208 92.9472 148.076 91.8511L148.039 91.5413L146.564 91.8399C145.587 92.0543 145.228 92.4844 145.297 93.0562C145.371 93.6758 145.861 93.931 146.588 93.8434ZM153.643 87.772L153.766 88.7966L153.266 88.8569C152.205 88.9846 151.628 89.7069 151.762 90.8268L152.134 93.9125L151.014 94.0474L150.314 88.2335L151.362 88.1072L151.54 88.9802C151.705 88.3439 152.24 87.8685 153.038 87.7723C153.241 87.7479 153.41 87.7516 153.643 87.772ZM157.544 93.4059C155.852 93.6097 154.675 92.4703 154.461 90.6951C154.246 88.908 155.124 87.4726 156.852 87.2645C157.746 87.1568 158.543 87.4596 159.023 88.127L158.555 84.2431L159.663 84.1096L160.719 92.8782L159.718 92.9988L159.495 91.9499C159.21 92.7941 158.473 93.2939 157.544 93.4059ZM157.648 92.3659C158.792 92.2281 159.393 91.2976 159.246 90.0823C159.103 88.891 158.296 88.1178 157.153 88.2556C156.009 88.3934 155.445 89.3316 155.589 90.523C155.734 91.7263 156.504 92.5037 157.648 92.3659ZM161.654 91.0492L162.727 90.92C162.798 91.5157 163.294 91.8186 164.033 91.7296C164.819 91.6349 165.233 91.2587 165.169 90.7225C165.121 90.3294 164.902 90.1141 164.276 90.0324L163.222 89.9176C162.156 89.7922 161.606 89.3388 161.502 88.481C161.373 87.4088 162.197 86.6206 163.483 86.4656C164.758 86.312 165.678 86.9263 165.836 88.0315L164.763 88.1606C164.669 87.5797 164.231 87.2578 163.552 87.3396C162.849 87.4243 162.494 87.7814 162.558 88.3175C162.606 88.7107 162.923 88.9383 163.512 89.0124L164.567 89.1392C165.584 89.2583 166.127 89.6522 166.232 90.5219C166.366 91.6299 165.497 92.4476 164.115 92.6141C162.745 92.7792 161.788 92.1572 161.654 91.0492ZM170.687 94.3243L170.577 93.407L171.327 93.3165C171.863 93.2519 172.282 93.1169 172.467 92.3452L172.602 91.7608L169.516 85.908L170.696 85.7659L172.953 90.2561L174.115 85.3539L175.27 85.2147L173.378 92.6827C173.106 93.7308 172.572 94.2181 171.678 94.3258C171.309 94.3703 170.994 94.3599 170.687 94.3243ZM175.913 88.0865C175.696 86.2875 176.83 84.8696 178.582 84.6587C180.321 84.4491 181.76 85.5569 181.977 87.3559C182.193 89.1549 181.059 90.5728 179.319 90.7824C177.568 90.9934 176.129 89.8855 175.913 88.0865ZM177.044 87.9502C177.191 89.1654 178.067 89.918 179.199 89.7816C180.319 89.6467 181.003 88.7061 180.857 87.4909C180.71 86.2756 179.822 85.5245 178.702 85.6594C177.57 85.7958 176.898 86.735 177.044 87.9502ZM186.753 83.8313L187.861 83.6978L188.563 89.5237L187.562 89.6442L187.337 88.777C187.077 89.4248 186.353 89.935 185.495 90.0384C184.137 90.202 183.264 89.3765 183.091 87.9468L182.655 84.325L183.775 84.1901L184.167 87.4426C184.317 88.6935 184.911 89.1055 185.769 89.0022C186.793 88.8787 187.274 88.156 187.124 86.905L186.753 83.8313ZM192.816 83.0525L192.94 84.0771L192.439 84.1374C191.379 84.2651 190.801 84.9874 190.936 86.1073L191.308 89.193L190.188 89.3279L189.488 83.5139L190.536 83.3876L190.714 84.2606C190.879 83.6243 191.414 83.1489 192.212 83.0528C192.415 83.0284 192.584 83.0321 192.816 83.0525ZM197.101 85.5459C196.881 83.7231 197.884 82.321 199.588 82.1158C201.054 81.9392 202.179 82.6498 202.538 83.924L201.418 84.0589C201.138 83.3432 200.495 83.0218 199.744 83.1122C198.684 83.24 198.055 84.1377 198.207 85.4005C198.358 86.6515 199.135 87.3798 200.195 87.2521C200.993 87.1559 201.539 86.6672 201.658 85.9517L202.778 85.8168C202.704 87.107 201.721 88.0835 200.315 88.2528C198.6 88.4595 197.322 87.3807 197.101 85.5459ZM203.463 84.7673C203.247 82.9683 204.381 81.5504 206.132 81.3394C207.872 81.1299 209.311 82.2377 209.527 84.0367C209.744 85.8357 208.61 87.2536 206.87 87.4631C205.119 87.6741 203.68 86.5663 203.463 84.7673ZM204.595 84.6309C204.741 85.8461 205.618 86.5987 206.75 86.4624C207.87 86.3275 208.554 85.3868 208.408 84.1716C208.261 82.9564 207.373 82.2053 206.253 82.3402C205.121 82.4765 204.449 83.4157 204.595 84.6309ZM212.239 86.6713L211.119 86.8062L210.417 80.9804L211.418 80.8598L211.617 81.6094C211.849 81.0254 212.422 80.5696 213.244 80.4705C214.15 80.3614 214.848 80.7367 215.233 81.4275C215.419 80.6678 216.068 80.1304 216.973 80.0213C218.308 79.8605 219.218 80.5969 219.38 81.9431L219.84 85.7556L218.744 85.8876L218.317 82.3492C218.207 81.4318 217.631 80.9694 216.845 81.0641C215.999 81.166 215.511 81.8291 215.623 82.7584L216.039 86.2134L214.931 86.3469L214.503 82.7966C214.393 81.8792 213.832 81.4391 213.046 81.5339C212.2 81.6358 211.71 82.287 211.822 83.2163L212.239 86.6713ZM221.706 88.1777L220.69 79.7427L221.703 79.6207L221.913 80.659C222.21 79.8134 222.946 79.3017 223.875 79.1898C225.543 78.9888 226.73 80.1149 226.945 81.902C227.159 83.6771 226.343 85.1292 224.616 85.3373C223.686 85.4493 222.865 85.1494 222.397 84.4805L222.826 88.0427L221.706 88.1777ZM222.174 82.5252C222.317 83.7166 223.112 84.4911 224.255 84.3533C225.399 84.2155 225.975 83.2759 225.831 82.0846C225.686 80.8813 224.904 80.1053 223.76 80.2431C222.616 80.3809 222.027 81.31 222.174 82.5252ZM231.067 84.548C229.351 84.7547 228.023 83.6577 227.804 81.8468C227.585 80.024 228.588 78.6219 230.28 78.4181C231.936 78.2186 233.158 79.2317 233.366 80.9592L233.416 81.3762L228.914 81.9307C229.146 83.1478 229.871 83.7493 230.979 83.6159C231.848 83.5111 232.377 83.0848 232.487 82.3946L233.536 82.2683C233.401 83.5537 232.508 84.3743 231.067 84.548ZM230.393 79.3593C229.416 79.477 228.867 80.1354 228.848 81.1772L232.207 80.7725C232.091 79.8074 231.382 79.2402 230.393 79.3593ZM236.579 83.7389L235.459 83.8738L234.871 78.9891L233.727 79.1269L233.613 78.1857L234.757 78.0479L234.538 76.2251L235.657 76.0902L235.877 77.913L237.021 77.7752L237.134 78.7164L235.99 78.8542L236.579 83.7389ZM238.407 76.2061C238.002 76.2549 237.629 75.9615 237.58 75.5564C237.529 75.1394 237.824 74.7776 238.229 74.7288C238.634 74.68 239.007 74.9615 239.057 75.3784C239.106 75.7835 238.812 76.1573 238.407 76.2061ZM238.728 83.48L238.026 77.6541L239.146 77.5192L239.848 83.3451L238.728 83.48ZM243.118 82.9511L241.998 83.086L241.409 78.2014L240.265 78.3392L240.152 77.398L241.296 77.2602L241.076 75.4374L242.196 75.3024L242.416 77.1252L243.559 76.9875L243.673 77.9287L242.529 78.0664L243.118 82.9511ZM244.475 79.8263C244.259 78.0273 245.393 76.6094 247.144 76.3984C248.884 76.1889 250.323 77.2967 250.539 79.0957C250.756 80.8947 249.622 82.3126 247.882 82.5221C246.131 82.7331 244.692 81.6253 244.475 79.8263ZM245.607 79.6899C245.754 80.9051 246.63 81.6577 247.762 81.5214C248.882 81.3865 249.566 80.4458 249.42 79.2306C249.273 78.0154 248.385 77.2643 247.265 77.3992C246.133 77.5355 245.461 78.4747 245.607 79.6899ZM254.759 75.5898L254.882 76.6144L254.382 76.6747C253.322 76.8024 252.744 77.5247 252.879 78.6446L253.251 81.7303L252.131 81.8652L251.43 76.0513L252.479 75.925L252.656 76.798C252.822 76.1617 253.357 75.6863 254.155 75.5901C254.357 75.5657 254.527 75.5694 254.759 75.5898ZM259.094 79.31L260.167 79.1808C260.238 79.7765 260.734 80.0794 261.473 79.9904C262.259 79.8956 262.673 79.5194 262.609 78.9833C262.561 78.5901 262.342 78.3748 261.716 78.2931L260.662 78.1783C259.596 78.053 259.045 77.5995 258.942 76.7417C258.813 75.6695 259.637 74.8813 260.923 74.7263C262.198 74.5727 263.118 75.1871 263.275 76.2922L262.203 76.4214C262.109 75.8405 261.671 75.5185 260.992 75.6003C260.289 75.685 259.934 76.0421 259.998 76.5783C260.045 76.9714 260.363 77.1991 260.952 77.2731L262.007 77.3999C263.024 77.519 263.567 77.9129 263.672 78.7826C263.806 79.8906 262.937 80.7084 261.555 80.8749C260.185 81.0399 259.228 80.418 259.094 79.31ZM267.646 80.141C265.93 80.3477 264.602 79.2508 264.384 77.4399C264.164 75.6171 265.167 74.215 266.859 74.0112C268.515 73.8116 269.737 74.8248 269.945 76.5523L269.996 76.9693L265.494 77.5237C265.725 78.7408 266.45 79.3424 267.558 79.2089C268.428 79.1041 268.956 78.6778 269.067 77.9877L270.115 77.8614C269.98 79.1468 269.088 79.9674 267.646 80.141ZM266.973 74.9524C265.996 75.07 265.446 75.7285 265.427 76.7703L268.787 76.3655C268.67 75.4005 267.961 74.8332 266.973 74.9524ZM274.103 79.3631C272.388 79.5698 271.059 78.4729 270.841 76.6619C270.621 74.8391 271.625 73.437 273.316 73.2332C274.972 73.0337 276.194 74.0468 276.403 75.7743L276.453 76.1913L271.951 76.7458C272.182 77.9629 272.907 78.5644 274.015 78.431C274.885 78.3262 275.414 77.8999 275.524 77.2097L276.572 77.0834C276.437 78.3688 275.545 79.1894 274.103 79.3631ZM273.43 74.1744C272.453 74.2921 271.904 74.9505 271.884 75.9923L275.244 75.5876C275.128 74.6225 274.419 74.0553 273.43 74.1744ZM279.149 78.6101L278.029 78.745L277.328 72.9192L278.328 72.7986L278.527 73.5482C278.759 72.9643 279.333 72.5084 280.155 72.4093C281.06 72.3003 281.758 72.6755 282.144 73.3663C282.33 72.6066 282.978 72.0692 283.884 71.9601C285.218 71.7993 286.129 72.5357 286.291 73.8819L286.75 77.6944L285.654 77.8264L285.228 74.288C285.118 73.3707 284.542 72.9082 283.756 73.0029C282.91 73.1048 282.422 73.768 282.534 74.6972L282.95 78.1523L281.842 78.2857L281.414 74.7354C281.304 73.818 280.743 73.3779 279.957 73.4727C279.111 73.5746 278.621 74.2258 278.733 75.1551L279.149 78.6101ZM287.553 75.8814L288.625 75.7522C288.697 76.3479 289.192 76.6508 289.931 76.5618C290.717 76.4671 291.131 76.0908 291.067 75.5547C291.019 75.1616 290.8 74.9463 290.174 74.8646L289.121 74.7497C288.054 74.6244 287.504 74.171 287.4 73.3132C287.271 72.2409 288.095 71.4528 289.382 71.2977C290.656 71.1442 291.576 71.7585 291.734 72.8636L290.661 72.9928C290.567 72.4119 290.13 72.0899 289.451 72.1718C288.748 72.2564 288.392 72.6136 288.456 73.1497C288.504 73.5429 288.821 73.7705 289.41 73.8446L290.465 73.9713C291.483 74.0905 292.026 74.4843 292.13 75.3541C292.264 76.462 291.396 77.2798 290.014 77.4463C288.643 77.6114 287.686 76.9894 287.553 75.8814ZM298.475 76.2818L297.355 76.4167L296.767 71.5321L295.623 71.6699L295.51 70.7287L296.653 70.5909L296.434 68.7681L297.554 68.6331L297.773 70.4559L298.917 70.3182L299.03 71.2593L297.887 71.3971L298.475 76.2818ZM299.833 73.157C299.616 71.358 300.751 69.9401 302.502 69.7291C304.241 69.5196 305.68 70.6274 305.897 72.4264C306.114 74.2254 304.979 75.6433 303.24 75.8528C301.488 76.0638 300.05 74.956 299.833 73.157ZM300.965 73.0206C301.111 74.2358 301.987 74.9884 303.119 74.8521C304.239 74.7172 304.923 73.7765 304.777 72.5613C304.631 71.3461 303.742 70.595 302.623 70.7299C301.491 70.8662 300.818 71.8054 300.965 73.0206ZM311.759 74.6815L310.746 74.8035L309.69 66.0349L310.81 65.8999L311.285 69.8434C311.574 69.035 312.311 68.5352 313.265 68.4204C314.933 68.2194 316.091 69.4094 316.308 71.2084C316.52 72.9716 315.624 74.3608 313.932 74.5646C313.015 74.6751 312.192 74.3634 311.714 73.6111L311.759 74.6815ZM311.525 71.7363C311.671 72.9515 312.464 73.7141 313.608 73.5764C314.752 73.4386 315.327 72.4989 315.182 71.2956C315.039 70.1043 314.256 69.3283 313.113 69.4661C311.969 69.6039 311.381 70.5449 311.525 71.7363ZM320.421 73.7829C318.705 73.9896 317.376 72.8927 317.158 71.0818C316.939 69.2589 317.942 67.8569 319.634 67.653C321.29 67.4535 322.512 68.4666 322.72 70.1941L322.77 70.6111L318.268 71.1656C318.499 72.3827 319.225 72.9843 320.333 72.8508C321.202 72.746 321.731 72.3197 321.841 71.6295L322.89 71.5032C322.755 72.7886 321.862 73.6092 320.421 73.7829ZM319.747 68.5942C318.77 68.7119 318.221 69.3703 318.202 70.4122L321.561 70.0074C321.445 69.0424 320.736 68.4751 319.747 68.5942ZM326.924 71.138L327.996 71.0089C328.068 71.6046 328.564 71.9074 329.303 71.8184C330.089 71.7237 330.503 71.3475 330.438 70.8114C330.391 70.4182 330.172 70.2029 329.545 70.1212L328.492 70.0064C327.425 69.8811 326.875 69.4276 326.772 68.5698C326.643 67.4976 327.466 66.7094 328.753 66.5544C330.028 66.4008 330.948 67.0152 331.105 68.1203L330.033 68.2495C329.939 67.6685 329.501 67.3466 328.822 67.4284C328.119 67.5131 327.763 67.8702 327.828 68.4063C327.875 68.7995 328.193 69.0271 328.782 69.1012L329.837 69.228C330.854 69.3471 331.397 69.741 331.502 70.6107C331.635 71.7187 330.767 72.5364 329.385 72.7029C328.015 72.868 327.058 72.246 326.924 71.138ZM334.063 71.9822L332.943 72.1171L331.888 63.3604L333.008 63.2255L333.471 67.0618C333.764 66.3858 334.415 65.8722 335.32 65.7632C336.81 65.5837 337.638 66.4388 337.817 67.928L338.247 71.4903L337.127 71.6252L336.728 68.3132C336.586 67.1337 335.968 66.7246 335.134 66.8251C334.05 66.9557 333.561 67.8123 333.682 68.8131L334.063 71.9822ZM339.477 64.0295C339.072 64.0783 338.698 63.7849 338.65 63.3798C338.599 62.9629 338.894 62.601 339.299 62.5522C339.704 62.5034 340.077 62.7849 340.127 63.2019C340.176 63.6069 339.882 63.9807 339.477 64.0295ZM339.798 71.3034L339.096 65.4775L340.216 65.3426L340.918 71.1685L339.798 71.3034ZM341.222 65.2214L342.08 65.118L341.968 64.1887C341.796 62.7591 342.5 62.082 343.512 61.96C343.727 61.9342 343.99 61.9145 344.209 61.9244L344.325 62.8894L343.825 62.9497C343.146 63.0315 343.012 63.4224 343.088 64.0538L343.2 64.9831L345.928 64.6544L345.708 62.8316L346.828 62.6967L347.048 64.5195L348.192 64.3817L348.305 65.3229L347.161 65.4607L347.75 70.3454L346.63 70.4803L346.041 65.5956L343.313 65.9243L343.902 70.809L342.782 70.9439L342.193 66.0592L341.335 66.1626L341.222 65.2214ZM349.576 62.8128C349.171 62.8616 348.797 62.5682 348.749 62.1632C348.698 61.7462 348.993 61.3843 349.398 61.3355C349.803 61.2867 350.176 61.5682 350.226 61.9852C350.275 62.3902 349.981 62.764 349.576 62.8128ZM349.897 70.0867L349.195 64.2609L350.315 64.1259L351.016 69.9518L349.897 70.0867ZM353.762 69.621L352.642 69.7559L351.94 63.9301L352.953 63.8081L353.18 64.6872C353.469 63.9756 354.16 63.4934 354.982 63.3944C356.519 63.2092 357.335 64.0657 357.515 65.555L357.944 69.1172L356.824 69.2521L356.425 65.9401C356.283 64.7606 355.677 64.3501 354.82 64.4534C353.771 64.5797 353.254 65.4035 353.39 66.5353L353.762 69.621ZM358.757 65.913C358.559 64.2689 359.464 62.8544 361.156 62.6506C362.097 62.5372 362.875 62.8785 363.332 63.5608L363.297 62.5619L364.297 62.4413L364.971 68.0289C365.192 69.8637 364.2 71.1676 362.413 71.3829C360.829 71.5738 359.637 70.8108 359.245 69.3594L360.364 69.2244C360.611 70.065 361.314 70.4879 362.291 70.3702C363.387 70.2381 364.016 69.4372 363.883 68.3292L363.742 67.1616C363.443 67.8867 362.729 68.3836 361.812 68.4941C360.155 68.6936 358.953 67.5452 358.757 65.913ZM359.874 65.7542C360.006 66.8503 360.788 67.6263 361.884 67.4942C363.016 67.3579 363.61 66.4645 363.472 65.3207C363.337 64.2008 362.572 63.4711 361.428 63.6089C360.309 63.7438 359.745 64.682 359.874 65.7542ZM370.993 67.5451L369.873 67.68L369.171 61.8541L370.184 61.7321L370.411 62.6113C370.7 61.8996 371.391 61.4175 372.213 61.3185C373.75 61.1333 374.566 61.9898 374.746 63.479L375.175 67.0413L374.055 67.1762L373.656 63.8642C373.514 62.6847 372.908 62.2742 372.051 62.3775C371.002 62.5038 370.485 63.3276 370.621 64.4594L370.993 67.5451ZM379.257 66.6945C377.541 66.9012 376.213 65.8043 375.994 63.9934C375.775 62.1705 376.778 60.7684 378.47 60.5646C380.126 60.3651 381.348 61.3782 381.556 63.1057L381.606 63.5227L377.104 64.0772C377.336 65.2943 378.061 65.8959 379.169 65.7624C380.039 65.6576 380.567 65.2313 380.678 64.5411L381.726 64.4148C381.591 65.7002 380.699 66.5208 379.257 66.6945ZM378.584 61.5058C377.607 61.6235 377.057 62.2819 377.038 63.3237L380.398 62.919C380.281 61.954 379.572 61.3867 378.584 61.5058ZM382.445 63.0591C382.247 61.415 383.152 60.0005 384.844 59.7967C385.785 59.6833 386.564 60.0247 387.02 60.7069L386.985 59.708L387.985 59.5875L388.659 65.1751C388.88 67.0098 387.889 68.3137 386.101 68.529C384.517 68.7199 383.325 67.957 382.933 66.5055L384.053 66.3706C384.299 67.2112 385.003 67.634 385.979 67.5163C387.076 67.3843 387.704 66.5833 387.571 65.4753L387.43 64.3078C387.131 65.0328 386.417 65.5297 385.5 65.6403C383.844 65.8398 382.642 64.6913 382.445 63.0591ZM383.562 62.9003C383.694 63.9964 384.476 64.7724 385.573 64.6404C386.704 64.504 387.298 63.6106 387.16 62.4669C387.025 61.347 386.26 60.6172 385.117 60.755C383.997 60.8899 383.433 61.8281 383.562 62.9003ZM392.024 65.1563C390.773 65.307 389.95 64.6931 389.822 63.6328C389.693 62.5605 390.411 61.7972 391.768 61.5249L393.586 61.1609L393.566 60.9941C393.448 60.0172 392.823 59.742 392.036 59.8367C391.095 59.9501 390.609 60.4317 390.694 61.1346L389.717 61.2523C389.57 60.0371 390.475 59.1183 391.976 58.9374C393.418 58.7638 394.487 59.4086 394.676 60.9812L395.117 64.6387L394.164 64.7536L393.931 63.8267C393.714 64.5298 392.966 65.0429 392.024 65.1563ZM392.241 64.2479C393.302 64.1201 393.862 63.3516 393.73 62.2555L393.692 61.9458L392.218 62.2443C391.24 62.4588 390.881 62.8888 390.95 63.4607C391.025 64.0802 391.515 64.3354 392.241 64.2479ZM398.219 64.265L397.099 64.3999L396.51 59.5153L395.367 59.6531L395.253 58.7119L396.397 58.5741L396.177 56.7513L397.297 56.6163L397.517 58.4392L398.661 58.3014L398.774 59.2426L397.63 59.3803L398.219 64.265ZM400.047 56.7322C399.642 56.781 399.268 56.4876 399.219 56.0826C399.169 55.6656 399.464 55.3037 399.869 55.2549C400.274 55.2061 400.647 55.4876 400.697 55.9046C400.746 56.3097 400.452 56.6834 400.047 56.7322ZM400.367 64.0061L399.666 58.1803L400.785 58.0454L401.487 63.8712L400.367 64.0061ZM404.745 63.4787L401.697 57.9356L402.888 57.7921L404.555 60.891C404.823 61.4146 405.049 61.883 405.187 62.2289C405.237 61.8362 405.367 61.3128 405.508 60.7761L406.414 57.3672L407.582 57.2265L405.853 63.3452L404.745 63.4787ZM411.438 62.8174C409.723 63.0241 408.394 61.9272 408.176 60.1162C407.956 58.2934 408.96 56.8913 410.651 56.6875C412.307 56.488 413.529 57.5011 413.738 59.2286L413.788 59.6456L409.286 60.2001C409.517 61.4172 410.242 62.0187 411.35 61.8853C412.22 61.7805 412.749 61.3542 412.859 60.664L413.907 60.5377C413.772 61.8231 412.88 62.6437 411.438 62.8174ZM410.765 57.6287C409.788 57.7464 409.239 58.4048 409.219 59.4466L412.579 59.0419C412.463 58.0768 411.754 57.5096 410.765 57.6287ZM416.508 62.0616L415.388 62.1965L414.332 53.4279L415.452 53.293L416.508 62.0616ZM417.911 64.5395L417.801 63.6222L418.551 63.5317C419.087 63.4672 419.506 63.3321 419.691 62.5604L419.826 61.9761L416.74 56.1232L417.92 55.9811L420.177 60.4713L421.339 55.5691L422.494 55.4299L420.602 62.8979C420.33 63.946 419.796 64.4333 418.902 64.541C418.533 64.5855 418.218 64.5751 417.911 64.5395ZM423.953 61.3097C423.488 61.3657 423.049 61.0318 422.994 60.5791C422.938 60.1144 423.286 59.6858 423.75 59.6299C424.203 59.5753 424.642 59.9092 424.698 60.3738C424.753 60.8266 424.405 61.2552 423.953 61.3097ZM68.6257 114.453L68.4965 113.38L74.8466 112.615L74.9758 113.688L72.3905 113.999L73.2991 121.54L72.1315 121.681L71.2229 114.14L68.6257 114.453ZM77.986 120.964L76.8661 121.099L75.8111 112.342L76.931 112.207L77.3932 116.043C77.6865 115.367 78.3377 114.854 79.2432 114.745C80.7324 114.565 81.5606 115.42 81.74 116.91L82.1692 120.472L81.0493 120.607L80.6503 117.295C80.5082 116.115 79.8908 115.706 79.0568 115.807C77.9727 115.937 77.4836 116.794 77.6042 117.795L77.986 120.964ZM83.4 113.011C82.9949 113.06 82.6211 112.766 82.5723 112.361C82.5221 111.944 82.8169 111.583 83.222 111.534C83.6271 111.485 83.9994 111.766 84.0496 112.183C84.0984 112.588 83.805 112.962 83.4 113.011ZM83.7203 120.285L83.0184 114.459L84.1383 114.324L84.8402 120.15L83.7203 120.285ZM85.7857 118.32L86.858 118.191C86.9297 118.786 87.4255 119.089 88.1642 119C88.9505 118.905 89.3645 118.529 89.2999 117.993C89.2525 117.6 89.0332 117.385 88.4069 117.303L87.3536 117.188C86.287 117.063 85.7368 116.609 85.6334 115.752C85.5043 114.679 86.3279 113.891 87.6146 113.736C88.8894 113.583 89.8095 114.197 89.9668 115.302L88.8945 115.431C88.8004 114.85 88.3627 114.528 87.6836 114.61C86.9807 114.695 86.6249 115.052 86.6895 115.588C86.7368 115.981 87.0543 116.209 87.6434 116.283L88.6982 116.41C89.7157 116.529 90.2587 116.923 90.3635 117.792C90.497 118.9 89.6286 119.718 88.2466 119.885C86.8765 120.05 85.9192 119.428 85.7857 118.32ZM96.184 118.783L95.0641 118.918L94.3622 113.092L95.363 112.972L95.562 113.721C95.7939 113.138 96.3675 112.682 97.1895 112.583C98.095 112.474 98.7928 112.849 99.1783 113.54C99.3647 112.78 100.013 112.242 100.919 112.133C102.253 111.973 103.164 112.709 103.326 114.055L103.785 117.868L102.689 118L102.263 114.461C102.152 113.544 101.577 113.081 100.79 113.176C99.9445 113.278 99.4563 113.941 99.5682 114.871L99.9845 118.326L98.8765 118.459L98.4488 114.909C98.3383 113.991 97.7776 113.551 96.9913 113.646C96.1454 113.748 95.6558 114.399 95.7677 115.328L96.184 118.783ZM105.017 110.407C104.612 110.456 104.238 110.162 104.189 109.757C104.139 109.34 104.434 108.978 104.839 108.929C105.244 108.881 105.617 109.162 105.667 109.579C105.716 109.984 105.422 110.358 105.017 110.407ZM105.337 117.681L104.636 111.855L105.755 111.72L106.457 117.546L105.337 117.681ZM107.345 114.332C107.147 112.688 108.052 111.274 109.744 111.07C110.685 110.957 111.464 111.298 111.921 111.98L111.885 110.981L112.886 110.861L113.559 116.448C113.78 118.283 112.789 119.587 111.002 119.802C109.417 119.993 108.225 119.23 107.833 117.779L108.953 117.644C109.199 118.485 109.903 118.907 110.88 118.79C111.976 118.658 112.604 117.857 112.471 116.749L112.33 115.581C112.031 116.306 111.317 116.803 110.4 116.914C108.744 117.113 107.542 115.965 107.345 114.332ZM108.462 114.174C108.594 115.27 109.377 116.046 110.473 115.914C111.604 115.777 112.198 114.884 112.06 113.74C111.925 112.62 111.16 111.891 110.017 112.028C108.897 112.163 108.333 113.101 108.462 114.174ZM116.322 116.345L115.202 116.48L114.147 107.723L115.267 107.588L115.729 111.425C116.023 110.749 116.674 110.235 117.579 110.126C119.068 109.947 119.897 110.802 120.076 112.291L120.505 115.853L119.385 115.988L118.986 112.676C118.844 111.497 118.227 111.088 117.393 111.188C116.309 111.319 115.82 112.175 115.94 113.176L116.322 116.345ZM123.7 115.468L122.581 115.603L121.992 110.719L120.848 110.856L120.735 109.915L121.879 109.777L121.659 107.955L122.779 107.82L122.999 109.642L124.142 109.505L124.256 110.446L123.112 110.584L123.7 115.468ZM130.12 114.695L129.107 114.817L128.051 106.048L129.17 105.913L129.646 109.857C129.935 109.048 130.672 108.549 131.626 108.434C133.293 108.233 134.452 109.423 134.669 111.222C134.881 112.985 133.985 114.374 132.293 114.578C131.376 114.689 130.553 114.377 130.075 113.625L130.12 114.695ZM129.886 111.75C130.032 112.965 130.825 113.728 131.969 113.59C133.112 113.452 133.688 112.512 133.543 111.309C133.4 110.118 132.617 109.342 131.474 109.48C130.33 109.617 129.742 110.558 129.886 111.75ZM138.782 113.796C137.066 114.003 135.737 112.906 135.519 111.095C135.3 109.272 136.303 107.87 137.995 107.667C139.651 107.467 140.873 108.48 141.081 110.208L141.131 110.625L136.629 111.179C136.86 112.396 137.586 112.998 138.694 112.864C139.563 112.759 140.092 112.333 140.202 111.643L141.251 111.517C141.115 112.802 140.223 113.623 138.782 113.796ZM138.108 108.608C137.131 108.725 136.582 109.384 136.563 110.426L139.922 110.021C139.806 109.056 139.097 108.489 138.108 108.608ZM147.686 112.724C146.435 112.874 145.612 112.26 145.484 111.2C145.355 110.128 146.073 109.364 147.43 109.092L149.248 108.728L149.228 108.561C149.11 107.584 148.485 107.309 147.698 107.404C146.757 107.517 146.271 107.999 146.356 108.702L145.379 108.82C145.232 107.604 146.137 106.686 147.638 106.505C149.08 106.331 150.149 106.976 150.338 108.548L150.779 112.206L149.826 112.321L149.593 111.394C149.376 112.097 148.628 112.61 147.686 112.724ZM147.903 111.815C148.964 111.687 149.524 110.919 149.392 109.823L149.354 109.513L147.88 109.812C146.902 110.026 146.543 110.456 146.612 111.028C146.687 111.647 147.177 111.903 147.903 111.815ZM153.45 111.884L152.33 112.019L151.628 106.193L152.64 106.071L152.867 106.95C153.156 106.239 153.847 105.757 154.67 105.658C156.206 105.472 157.023 106.329 157.202 107.818L157.631 111.38L156.511 111.515L156.112 108.203C155.97 107.024 155.365 106.613 154.507 106.717C153.459 106.843 152.941 107.667 153.078 108.799L153.45 111.884ZM161.707 107.928C161.491 106.129 162.625 104.711 164.376 104.5C166.116 104.291 167.555 105.399 167.771 107.198C167.988 108.996 166.854 110.414 165.114 110.624C163.363 110.835 161.924 109.727 161.707 107.928ZM162.839 107.792C162.985 109.007 163.862 109.76 164.994 109.623C166.113 109.488 166.798 108.548 166.651 107.332C166.505 106.117 165.617 105.366 164.497 105.501C163.365 105.637 162.693 106.577 162.839 107.792ZM169.677 112.576L168.661 104.141L169.674 104.019L169.883 105.058C170.18 104.212 170.916 103.7 171.846 103.588C173.514 103.387 174.701 104.513 174.916 106.3C175.13 108.076 174.314 109.528 172.586 109.736C171.657 109.848 170.835 109.548 170.368 108.879L170.797 112.441L169.677 112.576ZM170.144 106.924C170.288 108.115 171.082 108.89 172.226 108.752C173.37 108.614 173.945 107.674 173.802 106.483C173.657 105.28 172.874 104.504 171.731 104.642C170.587 104.779 169.998 105.708 170.144 106.924ZM176.821 111.716L175.805 103.281L176.817 103.159L177.027 104.197C177.324 103.351 178.06 102.84 178.989 102.728C180.657 102.527 181.844 103.653 182.06 105.44C182.274 107.215 181.457 108.667 179.73 108.875C178.801 108.987 177.979 108.687 177.511 108.018L177.941 111.581L176.821 111.716ZM177.288 106.063C177.432 107.254 178.226 108.029 179.37 107.891C180.513 107.753 181.089 106.814 180.946 105.622C180.801 104.419 180.018 103.643 178.874 103.781C177.731 103.919 177.142 104.848 177.288 106.063ZM182.917 105.373C182.7 103.574 183.835 102.156 185.586 101.945C187.326 101.735 188.765 102.843 188.981 104.642C189.198 106.441 188.063 107.859 186.324 108.069C184.573 108.28 183.134 107.172 182.917 105.373ZM184.049 105.236C184.195 106.452 185.072 107.204 186.203 107.068C187.323 106.933 188.008 105.992 187.861 104.777C187.715 103.562 186.827 102.811 185.707 102.946C184.575 103.082 183.903 104.021 184.049 105.236ZM193.201 101.136L193.324 102.161L192.824 102.221C191.764 102.349 191.186 103.071 191.321 104.191L191.693 107.277L190.573 107.412L189.872 101.598L190.921 101.471L191.098 102.344C191.263 101.708 191.798 101.233 192.597 101.137C192.799 101.112 192.969 101.116 193.201 101.136ZM196.836 106.657L195.716 106.792L195.127 101.907L193.984 102.045L193.87 101.104L195.014 100.966L194.794 99.1434L195.914 99.0085L196.134 100.831L197.278 100.694L197.391 101.635L196.247 101.773L196.836 106.657ZM202.309 100.087L203.417 99.9538L204.119 105.78L203.119 105.9L202.893 105.033C202.633 105.681 201.909 106.191 201.051 106.294C199.693 106.458 198.82 105.633 198.647 104.203L198.211 100.581L199.331 100.446L199.723 103.699C199.874 104.95 200.467 105.362 201.325 105.258C202.35 105.135 202.831 104.412 202.68 103.161L202.309 100.087ZM206.864 105.449L205.744 105.584L205.042 99.758L206.055 99.636L206.282 100.515C206.571 99.8036 207.262 99.3214 208.084 99.2224C209.621 99.0372 210.437 99.8937 210.617 101.383L211.046 104.945L209.926 105.08L209.527 101.768C209.385 100.589 208.779 100.178 207.922 100.281C206.873 100.408 206.356 101.231 206.492 102.363L206.864 105.449ZM212.277 97.4844C211.872 97.5332 211.498 97.2398 211.449 96.8347C211.399 96.4178 211.694 96.0559 212.099 96.0071C212.504 95.9583 212.876 96.2398 212.926 96.6568C212.975 97.0618 212.682 97.4356 212.277 97.4844ZM212.597 104.758L211.895 98.9324L213.015 98.7975L213.717 104.623L212.597 104.758ZM216.987 104.229L215.867 104.364L215.278 99.4797L214.135 99.6175L214.021 98.6763L215.165 98.5385L214.945 96.7157L216.065 96.5807L216.285 98.4036L217.429 98.2658L217.542 99.207L216.398 99.3448L216.987 104.229ZM218.89 106.647L218.78 105.73L219.53 105.639C220.066 105.575 220.485 105.44 220.67 104.668L220.805 104.084L217.719 98.2308L218.898 98.0887L221.156 102.579L222.318 97.6768L223.473 97.5375L221.581 105.005C221.308 106.054 220.775 106.541 219.881 106.649C219.512 106.693 219.196 106.683 218.89 106.647ZM229.971 102.665L228.851 102.8L228.263 97.9154L227.119 98.0532L227.006 97.112L228.149 96.9742L227.93 95.1514L229.05 95.0164L229.269 96.8393L230.413 96.7015L230.526 97.6427L229.383 97.7805L229.971 102.665ZM231.329 99.5403C231.112 97.7413 232.247 96.3234 233.998 96.1124C235.737 95.9029 237.176 97.0107 237.393 98.8097C237.61 100.609 236.475 102.027 234.736 102.236C232.984 102.447 231.546 101.339 231.329 99.5403ZM232.461 99.4039C232.607 100.619 233.483 101.372 234.615 101.235C235.735 101.1 236.419 100.16 236.273 98.9446C236.127 97.7294 235.238 96.9783 234.119 97.1132C232.987 97.2496 232.314 98.1887 232.461 99.4039ZM243.36 101.04L242.241 101.175L241.186 92.4182L242.305 92.2833L242.768 96.1195C243.061 95.4436 243.712 94.93 244.618 94.8209C246.107 94.6415 246.935 95.4966 247.114 96.9858L247.544 100.548L246.424 100.683L246.025 97.3709C245.883 96.1914 245.265 95.7824 244.431 95.8828C243.347 96.0134 242.858 96.8701 242.979 97.8709L243.36 101.04ZM248.774 93.0873C248.369 93.1361 247.996 92.8427 247.947 92.4376C247.897 92.0206 248.191 91.6588 248.596 91.61C249.002 91.5611 249.374 91.8426 249.424 92.2596C249.473 92.6647 249.18 93.0385 248.774 93.0873ZM249.095 100.361L248.393 94.5353L249.513 94.4004L250.215 100.226L249.095 100.361ZM251.102 97.013C250.904 95.3689 251.81 93.9545 253.501 93.7506C254.443 93.6372 255.221 93.9786 255.678 94.6608L255.642 93.6619L256.643 93.5414L257.316 99.129C257.537 100.964 256.546 102.268 254.759 102.483C253.174 102.674 251.983 101.911 251.59 100.459L252.71 100.324C252.956 101.165 253.66 101.588 254.637 101.47C255.733 101.338 256.362 100.537 256.228 99.4292L256.087 98.2617C255.788 98.9867 255.074 99.4836 254.157 99.5942C252.501 99.7937 251.299 98.6452 251.102 97.013ZM252.219 96.8543C252.351 97.9503 253.134 98.7263 254.23 98.5943C255.362 98.4579 255.955 97.5645 255.817 96.4208C255.682 95.3009 254.918 94.5711 253.774 94.7089C252.654 94.8438 252.09 95.782 252.219 96.8543ZM260.079 99.0257L258.96 99.1606L257.905 90.4039L259.024 90.269L259.487 94.1053C259.78 93.4293 260.431 92.9158 261.337 92.8067C262.826 92.6273 263.654 93.4823 263.833 94.9716L264.263 98.5338L263.143 98.6687L262.744 95.3567C262.602 94.1772 261.984 93.7681 261.15 93.8686C260.066 93.9992 259.577 94.8558 259.698 95.8566L260.079 99.0257ZM266.957 98.2091L265.838 98.3441L264.781 89.5755L265.901 89.4405L266.957 98.2091ZM268.286 90.7366C267.881 90.7854 267.507 90.492 267.458 90.0869C267.408 89.67 267.703 89.3081 268.108 89.2593C268.513 89.2105 268.885 89.492 268.935 89.909C268.984 90.314 268.691 90.6878 268.286 90.7366ZM268.606 98.0105L267.904 92.1846L269.024 92.0497L269.726 97.8756L268.606 98.0105ZM270.614 94.6624C270.416 93.0182 271.321 91.6038 273.013 91.4C273.954 91.2866 274.732 91.6279 275.189 92.3102L275.153 91.3113L276.154 91.1907L276.827 96.7783C277.048 98.613 276.057 99.917 274.27 100.132C272.686 100.323 271.494 99.5602 271.101 98.1088L272.221 97.9738C272.468 98.8144 273.171 99.2373 274.148 99.1196C275.244 98.9875 275.873 98.1866 275.739 97.0786L275.599 95.911C275.299 96.6361 274.586 97.133 273.668 97.2435C272.012 97.443 270.81 96.2945 270.614 94.6624ZM271.731 94.5036C271.863 95.5997 272.645 96.3757 273.741 96.2436C274.873 96.1072 275.466 95.2139 275.329 94.0701C275.194 92.9502 274.429 92.2205 273.285 92.3583C272.165 92.4932 271.601 93.4314 271.731 94.5036ZM279.591 96.675L278.471 96.81L277.416 88.0533L278.536 87.9184L278.998 91.7546C279.291 91.0787 279.942 90.5651 280.848 90.456C282.337 90.2766 283.165 91.1317 283.345 92.6209L283.774 96.1831L282.654 96.3181L282.255 93.006C282.113 91.8265 281.495 91.4175 280.661 91.5179C279.577 91.6485 279.088 92.5052 279.209 93.506L279.591 96.675ZM286.969 95.7982L285.849 95.9331L285.261 91.0484L284.117 91.1862L284.004 90.245L285.147 90.1072L284.928 88.2844L286.048 88.1495L286.267 89.9723L287.411 89.8345L287.524 90.7757L286.381 90.9135L286.969 95.7982ZM292.13 97.8234L292.019 96.9061L292.77 96.8156C293.306 96.751 293.725 96.616 293.91 95.8443L294.045 95.26L290.959 89.4071L292.138 89.265L294.396 93.7552L295.558 88.853L296.713 88.7138L294.821 96.1818C294.548 97.2299 294.015 97.7172 293.121 97.8249C292.752 97.8694 292.436 97.859 292.13 97.8234ZM297.355 91.5856C297.139 89.7866 298.273 88.3688 300.024 88.1578C301.764 87.9482 303.203 89.0561 303.419 90.8551C303.636 92.654 302.502 94.0719 300.762 94.2815C299.011 94.4925 297.572 93.3846 297.355 91.5856ZM298.487 91.4493C298.633 92.6645 299.51 93.4171 300.642 93.2807C301.762 93.1458 302.446 92.2052 302.3 90.99C302.153 89.7748 301.265 89.0236 300.145 89.1585C299.013 89.2949 298.341 90.2341 298.487 91.4493ZM308.196 87.3304L309.304 87.1969L310.006 93.0228L309.005 93.1433L308.78 92.2761C308.52 92.9239 307.795 93.4342 306.938 93.5375C305.579 93.7011 304.706 92.8756 304.534 91.446L304.098 87.8241L305.218 87.6892L305.61 90.9417C305.76 92.1927 306.354 92.6046 307.212 92.5013C308.236 92.3778 308.717 91.6551 308.566 90.4042L308.196 87.3304ZM314.259 86.5516L314.383 87.5762L313.882 87.6365C312.822 87.7642 312.244 88.4865 312.379 89.6064L312.751 92.6921L311.631 92.827L310.93 87.0131L311.979 86.8868L312.157 87.7598C312.322 87.1235 312.857 86.648 313.655 86.5519C313.857 86.5275 314.027 86.5312 314.259 86.5516ZM320.287 91.7841L319.275 91.9061L318.218 83.1375L319.338 83.0026L319.813 86.9461C320.103 86.1377 320.84 85.6378 321.793 85.523C323.461 85.3221 324.62 86.512 324.837 88.311C325.049 90.0743 324.153 91.4634 322.461 91.6673C321.544 91.7778 320.721 91.466 320.243 90.7137L320.287 91.7841ZM320.054 88.8389C320.2 90.0542 320.993 90.8168 322.137 90.679C323.28 90.5412 323.856 89.6016 323.711 88.3983C323.568 87.2069 322.785 86.4309 321.641 86.5687C320.498 86.7065 319.91 87.6476 320.054 88.8389ZM329.047 84.77L329.17 85.7946L328.67 85.8549C327.609 85.9827 327.032 86.7049 327.167 87.8248L327.538 90.9105L326.418 91.0455L325.718 85.2315L326.766 85.1052L326.944 85.9782C327.109 85.3419 327.644 84.8665 328.442 84.7703C328.645 84.7459 328.815 84.7496 329.047 84.77ZM332.293 90.4828C331.042 90.6335 330.219 90.0195 330.091 88.9592C329.962 87.887 330.68 87.1236 332.037 86.8513L333.854 86.4873L333.834 86.3205C333.716 85.3436 333.091 85.0684 332.305 85.1632C331.364 85.2766 330.878 85.7581 330.962 86.461L329.985 86.5787C329.839 85.3635 330.744 84.4447 332.245 84.2639C333.686 84.0902 334.755 84.735 334.945 86.3076L335.385 89.9652L334.432 90.08L334.2 89.1532C333.982 89.8562 333.234 90.3694 332.293 90.4828ZM332.51 89.5743C333.57 89.4465 334.13 88.678 333.998 87.582L333.961 87.2722L332.486 87.5708C331.509 87.7852 331.149 88.2152 331.218 88.7871C331.293 89.4066 331.783 89.6619 332.51 89.5743ZM338.056 89.6434L336.936 89.7783L336.234 83.9524L337.247 83.8304L337.474 84.7096C337.763 83.998 338.454 83.5158 339.276 83.4168C340.813 83.2316 341.629 84.0881 341.809 85.5773L342.238 89.1396L341.118 89.2745L340.719 85.9625C340.577 84.783 339.971 84.3725 339.114 84.4758C338.065 84.6021 337.548 85.4259 337.684 86.5577L338.056 89.6434ZM346.141 88.8144C344.45 89.0182 343.273 87.8787 343.059 86.1036C342.844 84.3165 343.722 82.8811 345.45 82.673C346.343 82.5653 347.141 82.8681 347.62 83.5355L347.153 79.6516L348.261 79.5181L349.317 88.2867L348.316 88.4073L348.093 87.3584C347.808 88.2026 347.071 88.7024 346.141 88.8144ZM346.246 87.7744C347.389 87.6366 347.99 86.706 347.844 85.4908C347.7 84.2994 346.894 83.5263 345.75 83.6641C344.607 83.8019 344.043 84.7401 344.186 85.9315C344.331 87.1348 345.102 87.9122 346.246 87.7744ZM351.031 80.0788L351.042 82.5794L350.399 82.6569L349.792 80.2281C349.656 79.7006 349.998 79.4297 350.343 79.3881C350.641 79.3522 351.038 79.5341 351.031 80.0788ZM352.498 86.1872L353.57 86.058C353.642 86.6537 354.138 86.9566 354.876 86.8676C355.662 86.7728 356.076 86.3966 356.012 85.8605C355.964 85.4674 355.745 85.252 355.119 85.1704L354.066 85.0555C352.999 84.9302 352.449 84.4768 352.345 83.619C352.216 82.5467 353.04 81.7585 354.327 81.6035C355.601 81.4499 356.521 82.0643 356.679 83.1694L355.607 83.2986C355.512 82.7177 355.075 82.3957 354.396 82.4775C353.693 82.5622 353.337 82.9194 353.401 83.4555C353.449 83.8486 353.766 84.0763 354.355 84.1504L355.41 84.2771C356.428 84.3963 356.971 84.7901 357.075 85.6598C357.209 86.7678 356.341 87.5856 354.959 87.7521C353.588 87.9171 352.631 87.2952 352.498 86.1872ZM364.128 86.6473C362.437 86.8511 361.26 85.7117 361.046 83.9365C360.831 82.1495 361.709 80.7141 363.437 80.5059C364.33 80.3983 365.128 80.701 365.608 81.3685L365.14 77.4846L366.248 77.3511L367.304 86.1197L366.303 86.2403L366.08 85.1914C365.795 86.0356 365.058 86.5354 364.128 86.6473ZM364.233 85.6074C365.376 85.4696 365.977 84.539 365.831 83.3238C365.688 82.1324 364.881 81.3593 363.738 81.4971C362.594 81.6349 362.03 82.5731 362.174 83.7644C362.319 84.9677 363.089 85.7452 364.233 85.6074ZM368.599 78.6511C368.194 78.6999 367.821 78.4065 367.772 78.0015C367.721 77.5845 368.016 77.2226 368.421 77.1738C368.826 77.125 369.199 77.4065 369.249 77.8235C369.298 78.2286 369.004 78.6023 368.599 78.6511ZM368.92 85.925L368.218 80.0992L369.338 79.9642L370.04 85.7901L368.92 85.925ZM370.344 79.843L371.202 79.7397L371.09 78.8104C370.918 77.3807 371.622 76.7036 372.694 76.5745C372.908 76.5486 373.16 76.5304 373.379 76.5403L373.495 77.5053L372.995 77.5656C372.268 77.6532 372.134 78.044 372.21 78.6755L372.322 79.6047L374.907 79.2933L374.795 78.364C374.623 76.9343 375.327 76.2572 376.387 76.1295C376.602 76.1037 376.865 76.084 377.084 76.0939L377.2 77.0589L376.7 77.1192C375.973 77.2068 375.827 77.5991 375.903 78.2305L376.015 79.1598L377.397 78.9933L377.51 79.9345L376.128 80.101L376.717 84.9856L375.609 85.1191L375.02 80.2345L372.435 80.5459L373.024 85.4306L371.904 85.5655L371.315 80.6808L370.457 80.7842L370.344 79.843ZM381.491 84.5555C379.776 84.7622 378.447 83.6652 378.229 81.8543C378.009 80.0315 379.013 78.6294 380.705 78.4256C382.361 78.2261 383.583 79.2392 383.791 80.9667L383.841 81.3837L379.339 81.9382C379.57 83.1552 380.295 83.7568 381.403 83.6233C382.273 83.5185 382.802 83.0922 382.912 82.4021L383.96 82.2758C383.825 83.5612 382.933 84.3818 381.491 84.5555ZM380.818 79.3668C379.841 79.4845 379.292 80.1429 379.272 81.1847L382.632 80.7799C382.516 79.8149 381.807 79.2476 380.818 79.3668ZM388.046 77.662L388.169 78.6866L387.669 78.7469C386.609 78.8746 386.031 79.5969 386.166 80.7168L386.538 83.8025L385.418 83.9374L384.717 78.1235L385.766 77.9972L385.943 78.8702C386.108 78.2339 386.643 77.7585 387.442 77.6623C387.644 77.6379 387.814 77.6416 388.046 77.662ZM392.125 83.2743C390.41 83.481 389.081 82.3841 388.863 80.5732C388.643 78.7503 389.647 77.3482 391.339 77.1444C392.995 76.9449 394.217 77.958 394.425 79.6855L394.475 80.1025L389.973 80.657C390.204 81.8741 390.929 82.4757 392.037 82.3422C392.907 82.2374 393.436 81.8111 393.546 81.1209L394.595 80.9946C394.459 82.28 393.567 83.1006 392.125 83.2743ZM391.452 78.0856C390.475 78.2033 389.926 78.8617 389.906 79.9036L393.266 79.4988C393.15 78.5338 392.441 77.9665 391.452 78.0856ZM397.172 82.5213L396.052 82.6563L395.35 76.8304L396.362 76.7084L396.589 77.5876C396.878 76.8759 397.569 76.3938 398.392 76.2947C399.928 76.1096 400.745 76.9661 400.924 78.4553L401.353 82.0175L400.233 82.1525L399.834 78.8404C399.692 77.6609 399.087 77.2504 398.229 77.3538C397.181 77.4801 396.663 78.3038 396.8 79.4357L397.172 82.5213ZM404.549 81.6326L403.429 81.7675L402.84 76.8828L401.696 77.0206L401.583 76.0794L402.727 75.9416L402.507 74.1188L403.627 73.9839L403.847 75.8067L404.99 75.6689L405.104 76.6101L403.96 76.7479L404.549 81.6326ZM406.377 74.0998C405.972 74.1486 405.598 73.8552 405.549 73.4501C405.499 73.0332 405.794 72.6713 406.199 72.6225C406.604 72.5737 406.976 72.8552 407.027 73.2722C407.075 73.6772 406.782 74.051 406.377 74.0998ZM406.697 81.3737L405.995 75.5478L407.115 75.4129L407.817 81.2388L406.697 81.3737ZM411.164 80.9806C409.913 81.1313 409.09 80.5174 408.962 79.4571C408.833 78.3848 409.551 77.6215 410.908 77.3492L412.725 76.9852L412.705 76.8184C412.588 75.8415 411.962 75.5663 411.176 75.661C410.235 75.7744 409.749 76.256 409.833 76.9589L408.856 77.0766C408.71 75.8614 409.615 74.9426 411.116 74.7617C412.557 74.5881 413.626 75.2328 413.816 76.8055L414.256 80.463L413.303 80.5779L413.071 79.651C412.853 80.3541 412.105 80.8672 411.164 80.9806ZM411.381 80.0722C412.441 79.9444 413.001 79.1759 412.869 78.0798L412.832 77.7701L411.357 78.0686C410.38 78.2831 410.021 78.7131 410.089 79.285C410.164 79.9045 410.654 80.1597 411.381 80.0722ZM417.358 80.0893L416.238 80.2242L415.65 75.3396L414.506 75.4773L414.393 74.5362L415.536 74.3984L415.317 72.5755L416.437 72.4406L416.656 74.2634L417.8 74.1256L417.913 75.0668L416.77 75.2046L417.358 80.0893ZM418.716 76.9645C418.499 75.1655 419.634 73.7476 421.385 73.5366C423.125 73.327 424.563 74.4349 424.78 76.2339C424.997 78.0329 423.862 79.4508 422.123 79.6603C420.372 79.8713 418.933 78.7635 418.716 76.9645ZM419.848 76.8281C419.994 78.0433 420.87 78.7959 422.002 78.6596C423.122 78.5246 423.807 77.584 423.66 76.3688C423.514 75.1536 422.626 74.4024 421.506 74.5374C420.374 74.6737 419.701 75.6129 419.848 76.8281ZM429 72.728L429.123 73.7526L428.623 73.8129C427.562 73.9406 426.985 74.6629 427.12 75.7828L427.491 78.8685L426.371 79.0034L425.671 73.1895L426.719 73.0632L426.897 73.9362C427.062 73.2999 427.597 72.8245 428.395 72.7283C428.598 72.7039 428.768 72.7076 429 72.728ZM430.077 76.8406L431.15 76.7115C431.221 77.3071 431.717 77.61 432.456 77.521C433.242 77.4263 433.656 77.0501 433.591 76.514C433.544 76.1208 433.325 75.9055 432.699 75.8238L431.645 75.709C430.579 75.5837 430.028 75.1302 429.925 74.2724C429.796 73.2002 430.62 72.412 431.906 72.257C433.181 72.1034 434.101 72.7177 434.258 73.8229L433.186 73.952C433.092 73.3711 432.654 73.0492 431.975 73.131C431.272 73.2157 430.916 73.5728 430.981 74.1089C431.028 74.5021 431.346 74.7297 431.935 74.8038L432.99 74.9306C434.007 75.0497 434.55 75.4436 434.655 76.3133C434.789 77.4213 433.92 78.239 432.538 78.4055C431.168 78.5706 430.211 77.9486 430.077 76.8406ZM436.879 77.8825C436.415 77.9385 435.976 77.6046 435.921 77.1519C435.865 76.6872 436.212 76.2586 436.677 76.2027C437.13 76.1481 437.569 76.482 437.625 76.9466C437.679 77.3994 437.332 77.828 436.879 77.8825Z" fill="#8F899C"/>
</g>
<defs>
<filter id="filter0_d_42_435" x="-2" y="0.150391" width="462.974" height="156.741" filterUnits="userSpaceOnUse" color-interpolation-filters="sRGB">
<feFlood flood-opacity="0" result="BackgroundImageFix"/>
<feColorMatrix in="SourceAlpha" type="matrix" values="0 0 0 0 0 0 0 0 0 0 0 0 0 0 0 0 0 0 127 0" result="hardAlpha"/>
<feOffset dy="4"/>
<feGaussianBlur stdDeviation="2"/>
<feComposite in2="hardAlpha" operator="out"/>
<feColorMatrix type="matrix" values="0 0 0 0 0.6 0 0 0 0 0.6 0 0 0 0 0.6 0 0 0 0.25 0"/>
<feBlend mode="normal" in2="BackgroundImageFix" result="effect1_dropShadow_42_435"/>
<feBlend mode="normal" in="SourceGraphic" in2="effect1_dropShadow_42_435" result="shape"/>
</filter>
</defs>
</svg>
