<svg width="12" height="13" viewBox="0 0 12 13" fill="none" xmlns="http://www.w3.org/2000/svg">
<path d="M6 9.5C6.79565 9.5 7.55871 9.18393 8.12132 8.62132C8.68393 8.05871 9 7.29565 9 6.5C9 5.70435 8.68393 4.94129 8.12132 4.37868C7.55871 3.81607 6.79565 3.5 6 3.5C5.20435 3.5 4.44129 3.81607 3.87868 4.37868C3.31607 4.94129 3 5.70435 3 6.5C3 7.29565 3.31607 8.05871 3.87868 8.62132C4.44129 9.18393 5.20435 9.5 6 9.5ZM11 6.5C11 7.82608 10.4732 9.09785 9.53553 10.0355C8.59785 10.9732 7.32608 11.5 6 11.5C4.67392 11.5 3.40215 10.9732 2.46447 10.0355C1.52678 9.09785 1 7.82608 1 6.5C1 5.17392 1.52678 3.90215 2.46447 2.96447C3.40215 2.02678 4.67392 1.5 6 1.5C7.32608 1.5 8.59785 2.02678 9.53553 2.96447C10.4732 3.90215 11 5.17392 11 6.5ZM10 6.5C10 5.43913 9.57857 4.42172 8.82843 3.67157C8.07828 2.92143 7.06087 2.5 6 2.5C4.93913 2.5 3.92172 2.92143 3.17157 3.67157C2.42143 4.42172 2 5.43913 2 6.5C2 7.56087 2.42143 8.57828 3.17157 9.32843C3.92172 10.0786 4.93913 10.5 6 10.5C7.06087 10.5 8.07828 10.0786 8.82843 9.32843C9.57857 8.57828 10 7.56087 10 6.5Z" fill="white"/>
</svg>
