<svg width="214" height="103" viewBox="0 0 214 103" fill="none" xmlns="http://www.w3.org/2000/svg">
<rect x="0.300781" y="58.2244" width="208.194" height="46" rx="12" transform="rotate(-16.2395 0.300781 58.2244)" fill="white"/>
<path d="M47.7254 63.9295L47.0655 61.6637L57.7418 58.554L58.4018 60.8198L54.2925 62.0167L57.7211 73.7875L55.2632 74.5035L51.8347 62.7326L47.7254 63.9295ZM61.2181 60.4161C60.4116 60.651 59.5934 60.2019 59.3641 59.4146C59.1348 58.6273 59.5895 57.8283 60.3959 57.5934C61.164 57.3697 61.9767 57.7996 62.206 58.5868C62.4353 59.3741 61.9862 60.1924 61.2181 60.4161ZM63.3635 72.1441L60.6005 62.6583L62.9432 61.9759L65.7061 71.4617L63.3635 72.1441ZM70.4691 70.0744L68.1265 70.7567L65.3635 61.2709L67.5141 60.6445L68.0306 61.7023C68.2813 60.7752 69.0624 59.8811 70.4258 59.4839C71.8659 59.0645 73.0714 59.4841 73.8894 60.4332C74.0507 59.1989 74.9574 58.164 76.3976 57.7445C78.7018 57.0733 80.3719 58.0867 81.0095 60.2758L82.816 66.478L80.4926 67.1548L78.865 61.567C78.4679 60.2037 77.5313 59.7057 76.4176 60.0301C75.2846 60.3601 74.6331 61.3415 75.0861 62.8968L76.6522 68.2734L74.3095 68.9558L72.6764 63.3488C72.2904 62.0238 71.373 61.5203 70.2593 61.8447C69.1456 62.1691 68.4556 63.1616 68.9031 64.6978L70.4691 70.0744ZM89.4321 64.8217C86.6094 65.6439 84.0332 64.1654 83.1774 61.2275C82.3105 58.2512 83.6514 55.6316 86.4357 54.8206C89.2776 53.9929 91.6363 55.3681 92.4977 58.3252L92.7046 59.0357L85.5671 61.1355C86.2265 62.7558 87.3559 63.3434 88.9112 62.8903C90.1978 62.5156 90.8972 61.7703 90.9032 60.7895L93.073 60.1574C93.2738 62.3487 91.9092 64.1002 89.4321 64.8217ZM87.0142 56.7353C85.6317 57.138 85.0049 58.1329 85.1884 59.621L89.9505 58.2339C89.5702 56.9282 88.416 56.327 87.0142 56.7353ZM98.1662 62.0069L95.8428 62.6837L91.6816 48.3974L94.005 47.7206L98.1662 62.0069ZM101.079 65.9289L100.508 63.9703L101.91 63.562C102.832 63.2935 103.346 62.9145 103.425 61.6833L103.487 60.8945L96.7854 52.1185L99.2624 51.397L103.715 57.5994L104.274 49.9372L106.694 49.2325L105.425 62.184C105.229 64.1576 104.443 65.1781 102.888 65.6311C102.235 65.8213 101.636 65.9123 101.079 65.9289ZM117.518 56.3702L114.964 57.1141L115.945 41.6008L118.461 40.8681L127.618 53.4282L125.026 54.1833L122.948 51.2681L117.706 52.795L117.518 56.3702ZM118.105 45.5128L117.831 50.5087L121.633 49.4013L118.701 45.3394C118.479 45.0081 118.222 44.6248 118.099 44.348C118.12 44.6336 118.128 45.0896 118.105 45.5128ZM131.395 52.3283L129.071 53.005L124.91 38.7187L127.234 38.042L131.395 52.3283ZM138.169 50.626C135.346 51.4482 132.77 49.9697 131.914 47.0318C131.047 44.0555 132.388 41.436 135.172 40.625C138.014 39.7972 140.373 41.1724 141.234 44.1296L141.441 44.84L134.303 46.9399C134.963 48.5601 136.092 49.1477 137.648 48.6947C138.934 48.3199 139.634 47.5746 139.64 46.5938L141.809 45.9618C142.01 48.153 140.646 49.9045 138.169 50.626ZM135.751 42.5396C134.368 42.9423 133.741 43.9372 133.925 45.4253L138.687 44.0382C138.307 42.7325 137.152 42.1313 135.751 42.5396ZM147.719 37.2411L148.351 39.4109L147.487 39.6626C145.797 40.1548 145.004 41.3649 145.541 43.2083L146.883 47.8168L144.541 48.4992L141.783 39.0326L143.992 38.3894L144.529 39.7328C144.658 38.6744 145.376 37.7779 146.643 37.4087C146.97 37.3136 147.307 37.257 147.719 37.2411ZM155.68 45.2546L153.337 45.9369L151.145 38.4097L149.321 38.9411L148.75 36.9825L150.574 36.4511L149.713 33.494L152.056 32.8117L152.917 35.7688L154.76 35.2318L155.331 37.1904L153.488 37.7274L155.68 45.2546ZM157.411 41.6257L159.639 40.9769C159.898 41.797 160.664 42.1364 161.739 41.8232C162.834 41.5044 163.3 40.8894 163.099 40.1981C162.959 39.7181 162.609 39.4451 161.708 39.4992L159.881 39.5938C158.061 39.7075 157 39.1415 156.558 37.6246C156.016 35.762 157.266 34.1896 159.455 33.552C161.586 32.9312 163.384 33.7406 163.941 35.5784L161.713 36.2272C161.459 35.4263 160.77 35.0645 159.868 35.3274C158.946 35.5958 158.532 36.1749 158.738 36.8854C158.895 37.423 159.418 37.6456 160.281 37.6027L162.107 37.5082C163.807 37.4088 164.826 37.9035 165.251 39.3629C165.81 41.2831 164.525 42.949 162.182 43.6314C159.821 44.3193 157.954 43.4883 157.411 41.6257Z" fill="#BDB60B"/>
</svg>
